<svg width="297" height="218" viewBox="0 0 297 218" fill="none" xmlns="http://www.w3.org/2000/svg">
<g clip-path="url(#clip0_6_289)">
<path d="M294.451 12.8973H1.77463C1.33998 12.8968 0.923279 12.7247 0.61594 12.4186C0.308601 12.1126 0.135729 11.6976 0.135254 11.2648V1.66182C0.135729 1.22899 0.308601 0.814025 0.61594 0.50797C0.923279 0.201915 1.33998 0.029769 1.77463 0.0292969H294.451C294.886 0.02977 295.302 0.20192 295.61 0.507975C295.917 0.81403 296.09 1.22899 296.09 1.66182V11.2648C296.09 11.6976 295.917 12.1126 295.61 12.4186C295.302 12.7247 294.886 12.8968 294.451 12.8973Z" fill="#E4E4E4"/>
<path d="M9.64928 8.31268C10.9347 8.31268 11.9768 7.27498 11.9768 5.9949C11.9768 4.71483 10.9347 3.67712 9.64928 3.67712C8.36383 3.67712 7.32178 4.71483 7.32178 5.9949C7.32178 7.27498 8.36383 8.31268 9.64928 8.31268Z" fill="white"/>
<path d="M18.4837 8.31268C19.7692 8.31268 20.8113 7.27498 20.8113 5.9949C20.8113 4.71483 19.7692 3.67712 18.4837 3.67712C17.1983 3.67712 16.1562 4.71483 16.1562 5.9949C16.1562 7.27498 17.1983 8.31268 18.4837 8.31268Z" fill="white"/>
<path d="M27.3185 8.31268C28.6039 8.31268 29.646 7.27498 29.646 5.9949C29.646 4.71483 28.6039 3.67712 27.3185 3.67712C26.033 3.67712 24.991 4.71483 24.991 5.9949C24.991 7.27498 26.033 8.31268 27.3185 8.31268Z" fill="white"/>
<path d="M285.795 4.39964H275.622C275.422 4.3992 275.231 4.31994 275.09 4.17926C274.949 4.03858 274.87 3.84796 274.87 3.64922C274.87 3.45048 274.949 3.25987 275.09 3.11918C275.231 2.9785 275.422 2.89924 275.622 2.8988H285.795C285.995 2.89866 286.186 2.97747 286.328 3.11791C286.469 3.25835 286.549 3.44894 286.549 3.64781C286.55 3.84669 286.471 4.03757 286.33 4.17854C286.189 4.31951 285.998 4.39904 285.798 4.39964H285.795Z" fill="white"/>
<path d="M285.795 7.21373H275.622C275.422 7.21329 275.231 7.13403 275.09 6.99335C274.949 6.85267 274.87 6.66205 274.87 6.46331C274.87 6.26458 274.949 6.07395 275.09 5.93327C275.231 5.79259 275.422 5.71333 275.622 5.71289H285.795C285.995 5.71275 286.186 5.79155 286.328 5.93199C286.469 6.07244 286.549 6.26303 286.549 6.4619C286.55 6.66077 286.471 6.85166 286.33 6.99263C286.189 7.1336 285.998 7.21312 285.798 7.21373H285.795Z" fill="white"/>
<path d="M285.795 10.0278H275.622C275.422 10.0278 275.23 9.94876 275.089 9.80803C274.948 9.66729 274.868 9.47642 274.868 9.2774C274.868 9.07838 274.948 8.8875 275.089 8.74677C275.23 8.60604 275.422 8.52698 275.622 8.52698H285.795C285.995 8.5266 286.187 8.60531 286.328 8.74577C286.47 8.88624 286.55 9.07697 286.55 9.27599C286.551 9.47501 286.471 9.66603 286.33 9.80703C286.189 9.94802 285.998 10.0274 285.798 10.0278H285.795Z" fill="white"/>
<path d="M83.588 190.855C84.6649 182.232 90.0319 173.735 98.2909 170.928C95.0337 179.804 95.0345 189.542 98.2929 198.418C99.562 201.836 101.331 205.507 100.137 208.952C99.3945 211.096 97.5775 212.736 95.5464 213.762C93.5153 214.787 91.2611 215.276 89.0351 215.755L88.5971 216.116C85.0634 208.17 82.511 199.479 83.588 190.855Z" fill="#F0F0F0"/>
<path d="M98.373 171.091C93.5634 176.458 90.5741 183.197 89.8296 190.352C89.6419 191.889 89.6987 193.447 89.998 194.966C90.3375 196.437 91.0665 197.791 92.1091 198.887C93.0606 199.928 94.1549 200.883 94.8357 202.136C95.1747 202.783 95.3725 203.494 95.4163 204.222C95.46 204.95 95.3487 205.679 95.0897 206.361C94.4886 208.078 93.3039 209.478 92.0976 210.806C90.7582 212.281 89.3436 213.792 88.7742 215.747C88.7052 215.984 88.3401 215.863 88.409 215.627C89.3995 212.225 92.7157 210.293 94.2972 207.229C95.0352 205.799 95.3449 204.139 94.6531 202.63C94.0482 201.31 92.9205 200.324 91.9479 199.278C90.9151 198.224 90.1572 196.934 89.7403 195.521C89.3643 194.022 89.2474 192.469 89.3944 190.93C89.67 187.461 90.4918 184.056 91.8295 180.841C93.3358 177.162 95.4628 173.768 98.1186 170.804C98.283 170.621 98.5364 170.909 98.373 171.091L98.373 171.091Z" fill="white"/>
<path d="M89.933 188.034C88.7445 187.747 87.6973 187.048 86.9783 186.063C86.2594 185.077 85.9156 183.87 86.0082 182.655C86.0125 182.606 86.0358 182.56 86.0734 182.527C86.111 182.495 86.1598 182.478 86.2096 182.48C86.2594 182.483 86.3063 182.504 86.3404 182.541C86.3746 182.577 86.3932 182.625 86.3925 182.675C86.3041 183.805 86.6245 184.93 87.2958 185.846C87.9672 186.762 88.9453 187.409 90.0536 187.67C90.2944 187.727 90.1724 188.091 89.933 188.034Z" fill="white"/>
<path d="M91.5566 198.422C93.7032 197.146 95.2878 195.111 95.9945 192.723C96.0643 192.486 96.4294 192.606 96.3597 192.843C95.6196 195.326 93.9663 197.441 91.7296 198.764C91.5163 198.89 91.3445 198.547 91.5566 198.422Z" fill="white"/>
<path d="M93.6924 177.525C94.129 177.732 94.6103 177.827 95.0931 177.803C95.5758 177.778 96.0449 177.635 96.4582 177.385C96.6698 177.257 96.8414 177.6 96.6312 177.727C96.1733 178.001 95.655 178.159 95.1217 178.187C94.5884 178.215 94.0563 178.113 93.5719 177.889C93.5244 177.872 93.4854 177.837 93.4626 177.792C93.4399 177.747 93.4352 177.695 93.4495 177.647C93.4657 177.599 93.5004 177.559 93.5458 177.536C93.5913 177.514 93.644 177.509 93.6924 177.525Z" fill="white"/>
<path d="M123.465 186.331C123.336 186.415 123.206 186.499 123.076 186.587C121.337 187.726 119.693 189.004 118.161 190.408C118.041 190.514 117.921 190.624 117.804 190.734C114.151 194.156 111.167 198.223 109.004 202.73C108.145 204.524 107.425 206.381 106.849 208.283C106.053 210.912 105.401 213.824 103.827 215.974C103.665 216.2 103.489 216.416 103.301 216.62H89.0731C89.0408 216.604 89.0083 216.591 88.9758 216.575L88.4077 216.601C88.4305 216.501 88.4564 216.397 88.4792 216.297C88.4922 216.239 88.5084 216.18 88.5214 216.122C88.531 216.084 88.5409 216.045 88.5474 216.009C88.5505 215.996 88.5539 215.983 88.557 215.974C88.5635 215.938 88.5734 215.906 88.5799 215.873C88.7227 215.295 88.8698 214.716 89.0213 214.138C89.0213 214.134 89.0213 214.134 89.0245 214.131C90.1363 209.711 91.7708 205.438 93.8936 201.401C93.9586 201.282 94.0234 201.159 94.0949 201.039C95.0779 199.252 96.2059 197.549 97.4676 195.945C98.1613 195.069 98.8992 194.228 99.6782 193.427C101.695 191.359 104.026 189.62 106.586 188.274C111.689 185.591 117.597 184.563 123.05 186.202C123.19 186.244 123.326 186.286 123.465 186.331Z" fill="#F0F0F0"/>
<path d="M123.434 186.511C116.349 187.912 109.887 191.501 104.967 196.767C103.888 197.882 102.992 199.16 102.312 200.553C101.694 201.931 101.457 203.449 101.627 204.949C101.757 206.35 102.054 207.769 101.84 209.178C101.719 209.898 101.447 210.584 101.042 211.191C100.637 211.799 100.107 212.314 99.4878 212.704C97.9699 213.714 96.1779 214.121 94.4116 214.459C92.4505 214.833 90.4076 215.191 88.7708 216.411C88.5725 216.559 88.3538 216.244 88.5518 216.096C91.3995 213.974 95.2156 214.419 98.3308 212.921C99.7845 212.222 101.035 211.082 101.395 209.463C101.71 208.046 101.406 206.583 101.262 205.165C101.074 203.704 101.249 202.22 101.77 200.841C102.377 199.419 103.222 198.109 104.27 196.968C106.588 194.363 109.302 192.137 112.315 190.372C115.741 188.338 119.492 186.903 123.404 186.129C123.646 186.081 123.674 186.464 123.433 186.511H123.434Z" fill="white"/>
<path d="M106.451 194.979C105.676 194.037 105.262 192.851 105.284 191.633C105.306 190.416 105.761 189.245 106.569 188.331C106.734 188.147 107.029 188.392 106.865 188.577C106.111 189.427 105.686 190.517 105.668 191.651C105.651 192.785 106.04 193.888 106.767 194.761C106.925 194.951 106.608 195.168 106.451 194.979Z" fill="white"/>
<path d="M101.467 204.247C103.952 204.514 106.448 203.84 108.456 202.357C108.655 202.209 108.874 202.524 108.675 202.671C106.583 204.211 103.984 204.908 101.398 204.623C101.152 204.596 101.222 204.219 101.467 204.247Z" fill="white"/>
<path d="M115.806 188.842C116.03 189.269 116.357 189.634 116.757 189.903C117.157 190.173 117.618 190.34 118.099 190.389C118.346 190.413 118.276 190.79 118.031 190.766C117.5 190.709 116.99 190.525 116.548 190.227C116.105 189.93 115.742 189.529 115.49 189.06C115.463 189.018 115.453 188.967 115.462 188.917C115.471 188.868 115.498 188.824 115.539 188.794C115.581 188.765 115.633 188.754 115.683 188.763C115.733 188.772 115.777 188.801 115.807 188.842L115.806 188.842Z" fill="white"/>
<path d="M96.0631 66.9862H48.9914C47.5368 66.9845 46.1422 66.4083 45.1136 65.384C44.0851 64.3597 43.5065 62.971 43.5049 61.5224V35.992C43.5065 34.5435 44.0851 33.1547 45.1137 32.1305C46.1422 31.1063 47.5368 30.5301 48.9914 30.5286H96.0631C97.5177 30.5301 98.9122 31.1062 99.9408 32.1305C100.969 33.1547 101.548 34.5435 101.55 35.992V61.5224C101.548 62.9709 100.969 64.3597 99.9409 65.384C98.9123 66.4083 97.5177 66.9845 96.0631 66.9862Z" fill="#E6E6E6"/>
<path d="M167.928 66.9862H120.856C119.402 66.9845 118.007 66.4083 116.979 65.384C115.95 64.3597 115.371 62.971 115.37 61.5224V35.992C115.372 34.5435 115.95 33.1547 116.979 32.1305C118.007 31.1063 119.402 30.5301 120.856 30.5286H167.928C169.383 30.5301 170.777 31.1062 171.806 32.1305C172.834 33.1547 173.413 34.5435 173.415 35.992V61.5224C173.413 62.9709 172.834 64.3597 171.806 65.384C170.777 66.4083 169.383 66.9845 167.928 66.9862Z" fill="#4BFFA5"/>
<path d="M239.793 66.9862H192.721C191.266 66.9845 189.872 66.4083 188.843 65.384C187.815 64.3597 187.236 62.971 187.235 61.5224V35.992C187.236 34.5435 187.815 33.1547 188.843 32.1305C189.872 31.1063 191.267 30.5301 192.721 30.5286H239.793C241.247 30.5301 242.642 31.1062 243.671 32.1305C244.699 33.1547 245.278 34.5435 245.279 35.992V61.5224C245.278 62.9709 244.699 64.3597 243.671 65.384C242.642 66.4083 241.247 66.9845 239.793 66.9862Z" fill="#E6E6E6"/>
<path d="M96.0631 123.871H48.9914C47.5368 123.869 46.1422 123.293 45.1136 122.269C44.0851 121.244 43.5065 119.856 43.5049 118.407V92.8768C43.5065 91.4282 44.0851 90.0395 45.1137 89.0153C46.1422 87.991 47.5368 87.4149 48.9914 87.4133H96.0631C97.5177 87.4149 98.9122 87.991 99.9408 89.0153C100.969 90.0395 101.548 91.4282 101.55 92.8767V118.407C101.548 119.856 100.969 121.244 99.9409 122.269C98.9123 123.293 97.5177 123.869 96.0631 123.871Z" fill="#F2F2F2"/>
<path d="M167.928 123.871H120.856C119.402 123.869 118.007 123.293 116.979 122.269C115.95 121.244 115.371 119.856 115.37 118.407V92.8768C115.372 91.4282 115.95 90.0395 116.979 89.0153C118.007 87.991 119.402 87.4149 120.856 87.4133H167.928C169.383 87.4149 170.777 87.991 171.806 89.0153C172.834 90.0395 173.413 91.4282 173.415 92.8767V118.407C173.413 119.856 172.834 121.244 171.806 122.269C170.777 123.293 169.383 123.869 167.928 123.871Z" fill="#E6E6E6"/>
<path d="M171.252 128.569C175.895 128.569 179.659 124.821 179.659 120.197C179.659 115.573 175.895 111.825 171.252 111.825C166.608 111.825 162.844 115.573 162.844 120.197C162.844 124.821 166.608 128.569 171.252 128.569Z" fill="#4BFFA5"/>
<path d="M174.743 119.494H171.884V116.647C171.884 116.559 171.867 116.472 171.833 116.391C171.799 116.31 171.75 116.236 171.687 116.174C171.625 116.111 171.551 116.062 171.469 116.028C171.388 115.995 171.3 115.977 171.212 115.977C171.123 115.977 171.036 115.995 170.954 116.028C170.873 116.062 170.799 116.111 170.736 116.174C170.674 116.236 170.624 116.31 170.59 116.391C170.556 116.472 170.539 116.559 170.539 116.647V119.494H167.681C167.592 119.494 167.505 119.511 167.423 119.545C167.342 119.578 167.268 119.628 167.205 119.69C167.143 119.752 167.093 119.826 167.059 119.907C167.025 119.988 167.008 120.076 167.008 120.164C167.008 120.252 167.025 120.339 167.059 120.42C167.093 120.501 167.143 120.575 167.205 120.637C167.268 120.699 167.342 120.749 167.423 120.782C167.505 120.816 167.592 120.833 167.681 120.833H170.539V123.68C170.539 123.768 170.557 123.855 170.59 123.936C170.624 124.017 170.674 124.091 170.736 124.153C170.799 124.216 170.873 124.265 170.954 124.299C171.036 124.332 171.123 124.35 171.212 124.35C171.39 124.35 171.561 124.279 171.687 124.153C171.813 124.028 171.884 123.858 171.884 123.68V120.833H174.743C174.831 120.833 174.919 120.816 175 120.782C175.082 120.749 175.156 120.699 175.218 120.637C175.281 120.575 175.33 120.501 175.364 120.42C175.398 120.339 175.415 120.251 175.415 120.164C175.415 120.076 175.398 119.988 175.364 119.907C175.33 119.826 175.281 119.752 175.218 119.69C175.156 119.628 175.082 119.578 175 119.545C174.919 119.511 174.831 119.494 174.743 119.494L174.743 119.494Z" fill="white"/>
<path d="M244.222 73.1521C248.865 73.1521 252.629 69.4038 252.629 64.78C252.629 60.1563 248.865 56.408 244.222 56.408C239.579 56.408 235.815 60.1563 235.815 64.78C235.815 69.4038 239.579 73.1521 244.222 73.1521Z" fill="#4BFFA5"/>
<path d="M247.713 64.077H244.855V61.2305C244.855 61.1425 244.837 61.0554 244.804 60.9742C244.77 60.8929 244.72 60.8191 244.658 60.7569C244.595 60.6947 244.521 60.6453 244.44 60.6117C244.358 60.578 244.27 60.5607 244.182 60.5607C244.094 60.5607 244.006 60.578 243.925 60.6117C243.843 60.6453 243.769 60.6947 243.707 60.7569C243.644 60.8191 243.595 60.8929 243.561 60.9742C243.527 61.0554 243.51 61.1425 243.51 61.2305V64.077H240.651C240.563 64.077 240.475 64.0943 240.394 64.128C240.312 64.1616 240.238 64.211 240.176 64.2732C240.113 64.3354 240.064 64.4092 240.03 64.4905C239.996 64.5717 239.979 64.6588 239.979 64.7468C239.979 64.8347 239.996 64.9218 240.03 65.0031C240.064 65.0844 240.113 65.1582 240.176 65.2204C240.238 65.2826 240.312 65.3319 240.394 65.3656C240.475 65.3993 240.563 65.4166 240.651 65.4166H243.51V68.2631C243.51 68.351 243.527 68.4381 243.561 68.5194C243.595 68.6007 243.644 68.6745 243.707 68.7367C243.769 68.7989 243.843 68.8482 243.925 68.8819C244.006 68.9156 244.094 68.9329 244.182 68.9329C244.361 68.9329 244.532 68.8623 244.658 68.7367C244.784 68.6111 244.855 68.4407 244.855 68.2631V65.4166H247.713C247.801 65.4166 247.889 65.3992 247.971 65.3656C248.052 65.3319 248.126 65.2826 248.189 65.2204C248.251 65.1582 248.301 65.0844 248.335 65.0031C248.368 64.9218 248.386 64.8347 248.386 64.7468C248.386 64.6588 248.368 64.5717 248.335 64.4904C248.301 64.4092 248.251 64.3353 248.189 64.2731C248.126 64.2109 248.052 64.1616 247.971 64.1279C247.889 64.0943 247.801 64.077 247.713 64.077L247.713 64.077Z" fill="white"/>
<path d="M99.3867 72.4181C104.03 72.4181 107.794 68.6698 107.794 64.046C107.794 59.4222 104.03 55.674 99.3867 55.674C94.7435 55.674 90.9795 59.4222 90.9795 64.046C90.9795 68.6698 94.7435 72.4181 99.3867 72.4181Z" fill="#4BFFA5"/>
<path d="M102.878 63.343H100.019V60.4965C100.019 60.4085 100.002 60.3214 99.9681 60.2401C99.9343 60.1589 99.8848 60.085 99.8223 60.0228C99.7599 59.9607 99.6857 59.9113 99.6041 59.8777C99.5225 59.844 99.4351 59.8267 99.3467 59.8267C99.2584 59.8267 99.1709 59.844 99.0893 59.8777C99.0077 59.9113 98.9336 59.9607 98.8711 60.0228C98.8087 60.085 98.7591 60.1589 98.7253 60.2401C98.6915 60.3214 98.6741 60.4085 98.6741 60.4965V63.343H95.8157C95.7274 63.343 95.6399 63.3603 95.5583 63.394C95.4767 63.4276 95.4025 63.477 95.3401 63.5391C95.2776 63.6013 95.2281 63.6752 95.1943 63.7564C95.1605 63.8377 95.1431 63.9248 95.1431 64.0128C95.1431 64.1904 95.2139 64.3608 95.3401 64.4864C95.4662 64.612 95.6373 64.6826 95.8157 64.6826H98.6741V67.5291C98.6741 67.617 98.6915 67.7041 98.7253 67.7854C98.7591 67.8667 98.8087 67.9405 98.8711 68.0027C98.9336 68.0649 99.0077 68.1142 99.0893 68.1479C99.1709 68.1816 99.2584 68.1989 99.3467 68.1989C99.4351 68.1989 99.5225 68.1816 99.6041 68.1479C99.6857 68.1142 99.7599 68.0649 99.8223 68.0027C99.8848 67.9405 99.9343 67.8667 99.9681 67.7854C100.002 67.7041 100.019 67.617 100.019 67.5291V64.6826H102.878C102.966 64.6826 103.054 64.6652 103.135 64.6316C103.217 64.5979 103.291 64.5486 103.353 64.4864C103.416 64.4242 103.465 64.3503 103.499 64.2691C103.533 64.1878 103.55 64.1007 103.55 64.0127C103.55 63.8351 103.48 63.6647 103.353 63.5391C103.227 63.4135 103.056 63.3429 102.878 63.3429V63.343Z" fill="white"/>
<path d="M162.329 52.4807C162.483 52.9427 162.533 53.4326 162.475 53.9159C162.418 54.3991 162.255 54.864 161.998 55.2777C161.741 55.6915 161.395 56.044 160.987 56.3105C160.578 56.577 160.115 56.751 159.631 56.8203L155.744 83.2444L149.367 80.1429L155.781 53.7667C155.718 52.9498 155.958 52.1383 156.456 51.486C156.954 50.8337 157.675 50.3858 158.482 50.2273C159.289 50.0688 160.126 50.2106 160.836 50.626C161.545 51.0413 162.076 51.7012 162.329 52.4807L162.329 52.4807Z" fill="#9E616A"/>
<path d="M115.899 137.11C116.183 136.714 116.376 136.261 116.465 135.783C116.554 135.304 116.536 134.812 116.413 134.341C116.291 133.87 116.066 133.432 115.755 133.056C115.443 132.681 115.053 132.379 114.612 132.17L117.234 104.063L111.741 106.867L110.026 133.952C109.723 134.713 109.711 135.559 109.993 136.329C110.274 137.099 110.83 137.739 111.553 138.129C112.277 138.518 113.119 138.629 113.92 138.442C114.721 138.254 115.425 137.78 115.899 137.11H115.899Z" fill="#9E616A"/>
<path d="M119.651 122.895L143.223 121.992L144.583 97.6154H117.385L119.651 122.895Z" fill="#9E616A"/>
<path d="M115.276 208.982L119.304 208.981L121.221 193.51H115.276L115.276 208.982Z" fill="#9E616A"/>
<path d="M114.277 207.003L120.645 206.625V209.341L126.699 213.505C126.998 213.71 127.223 214.006 127.341 214.348C127.46 214.69 127.465 215.061 127.357 215.406C127.249 215.752 127.033 216.054 126.74 216.268C126.447 216.483 126.094 216.598 125.73 216.598H118.149L116.843 213.911L116.333 216.598H113.474L114.277 207.003Z" fill="#2F2E41"/>
<path d="M133.193 208.982L137.221 208.981L139.137 193.51H133.192L133.193 208.982Z" fill="#9E616A"/>
<path d="M119.324 117.172C119.324 117.172 112.271 122.842 116.095 143.093C115.513 143.162 116.172 144.305 116.172 144.305L116.724 160.805L117.15 162.696L115.732 165.747L116.317 169.063L114.515 199.154L121.17 200.011L127.539 168.763L128.751 165.25L129.968 162.17L129.312 158.887L129.85 153.79L133.521 136.604L134.42 166.411L133.166 169.256L133.864 172.38L132.309 174.038L131.694 201.926L138.79 202.257L144.662 174.144L144.206 170.556L144.987 167.903V161.707L146.325 158.783L149.242 142.838C149.242 142.838 150.122 130.375 143.702 115.71L119.324 117.172Z" fill="#2F2E41"/>
<path d="M122.199 77.3562C122.199 77.3562 113.291 79.1106 111.756 86.676C110.221 94.2414 109.233 111.361 109.233 111.361L109.569 113.745L118.186 115.735L123.686 91.7473L122.199 77.3562Z" fill="#3F3D56"/>
<path d="M142.528 79.9099C142.528 79.9099 143.431 78.6498 148.488 78.4555C148.696 78.4475 148.438 78.0362 148.438 78.0362L150.87 66.1995L158.975 70.6678L157.607 83.0771L144.289 98.161L142.528 79.9099Z" fill="#3F3D56"/>
<path d="M137.477 115.197C133.661 115.197 127.918 114.778 119.273 113.5C118.716 113.416 118.2 113.157 117.801 112.761C117.403 112.365 117.142 111.853 117.056 111.298C116.774 111.001 116.59 110.625 116.53 110.221C116.47 109.816 116.536 109.403 116.72 109.038L116.728 109.022L116.533 108.792C116.23 108.437 116.052 107.994 116.026 107.529C116 107.064 116.128 106.604 116.39 106.219L113.712 87.144C113.441 85.2499 113.857 83.3213 114.885 81.7052C115.914 80.0891 117.488 78.8917 119.324 78.3282L120.313 78.0217L124.051 73.153L124.124 73.1538L136.124 73.3129L140.019 78.2374L146.313 79.7155L146.33 79.8109L147.791 88.2203C148.552 92.5941 146.808 94.3147 144.583 98.1609L145.236 108.963L145.532 109.499C145.697 109.796 145.752 110.141 145.688 110.474C145.624 110.807 145.446 111.107 145.183 111.323C145.382 111.888 145.395 112.501 145.222 113.074L145.068 113.581C145.068 113.595 145.027 113.801 144.695 114.053C144.095 114.506 142.375 115.197 137.477 115.197Z" fill="#3F3D56"/>
<path d="M132.194 207.003L138.561 206.625V209.341L144.615 213.505C144.914 213.71 145.139 214.006 145.258 214.348C145.376 214.69 145.382 215.061 145.273 215.406C145.165 215.752 144.949 216.054 144.656 216.268C144.364 216.483 144.01 216.598 143.646 216.598H136.066L134.759 213.911L134.249 216.598H131.391L132.194 207.003Z" fill="#2F2E41"/>
<path d="M138.881 62.5429C139.713 57.4358 136.23 52.6238 131.102 51.795C125.973 50.9663 121.141 54.4346 120.309 59.5417C119.477 64.6488 122.96 69.4608 128.088 70.2895C133.217 71.1183 138.049 67.65 138.881 62.5429Z" fill="#9E616A"/>
<path d="M135.096 51.8884C131.648 49.5269 128.612 49.1672 126.118 49.837C125.794 49.339 125.341 48.938 124.806 48.6772C122.861 43.7961 116.941 40.8648 111.86 42.2897C106.747 43.7239 103.219 49.3643 104.181 54.5668C104.777 57.7917 106.815 60.5841 107.635 63.7599C109.222 69.9077 105.351 76.9499 99.2954 78.9316C105.029 80.0781 111.34 76.5905 113.397 71.139C114.396 68.4911 114.456 65.6001 114.583 62.7743C114.617 60.8238 114.857 58.8823 115.299 56.982C115.519 56.1294 115.829 55.3026 116.225 54.5156C117.087 52.7857 118.519 51.4025 120.281 50.5969C120.123 51.083 120.084 51.5994 120.166 52.1037C120.248 52.608 120.45 53.0856 120.754 53.4971C119.409 55.1744 118.677 56.9884 118.677 58.0748C115.884 63.1586 119.878 67.5255 124.983 70.3071C127.02 71.4223 129.371 71.8305 131.666 71.4672L131.88 70.5592L132.169 71.3771L133.135 74.1191C134.249 74.6559 135.354 75.2444 136.449 75.8845C136.033 73.9389 135.697 71.9969 135.465 70.098C135.144 67.5137 136.262 63.6662 137.069 61.3264C137.568 59.8844 137.825 58.3699 137.828 56.8444V56.7777L138.613 59.289L141.471 58.0747C140.94 55.0374 141.471 51.5893 135.096 51.8884Z" fill="#2F2E41"/>
<path d="M252.648 217.063H43.5782C43.4622 217.063 43.3512 217.016 43.2694 216.934C43.1875 216.853 43.1416 216.742 43.1416 216.626C43.1416 216.511 43.1875 216.4 43.2694 216.318C43.3512 216.236 43.4622 216.19 43.5782 216.189H252.648C252.764 216.19 252.875 216.236 252.956 216.318C253.038 216.4 253.084 216.511 253.084 216.626C253.084 216.742 253.038 216.853 252.956 216.934C252.875 217.016 252.764 217.063 252.648 217.063Z" fill="#CCCCCC"/>
<path d="M98.4257 129.669C103.069 129.669 106.833 125.921 106.833 121.297C106.833 116.673 103.069 112.925 98.4257 112.925C93.7826 112.925 90.0186 116.673 90.0186 121.297C90.0186 125.921 93.7826 129.669 98.4257 129.669Z" fill="#E6E6E6"/>
<path d="M224.921 116.485H195.433C194.522 116.484 193.648 116.123 193.004 115.482C192.36 114.84 191.997 113.97 191.996 113.063V97.0693C191.997 96.1618 192.36 95.2919 193.004 94.6503C193.648 94.0086 194.522 93.6477 195.433 93.6467H224.921C225.832 93.6477 226.706 94.0086 227.35 94.6502C227.994 95.2919 228.357 96.1618 228.358 97.0692V113.063C228.357 113.97 227.994 114.84 227.35 115.482C226.706 116.123 225.832 116.484 224.921 116.485Z" fill="#F2F2F2"/>
<path d="M225.355 109.989C227.821 109.989 229.82 107.998 229.82 105.543C229.82 103.087 227.821 101.097 225.355 101.097C222.89 101.097 220.891 103.087 220.891 105.543C220.891 107.998 222.89 109.989 225.355 109.989Z" fill="#4BFFA5"/>
<path d="M227.209 105.169H225.691V103.658C225.691 103.611 225.682 103.565 225.664 103.522C225.646 103.479 225.62 103.439 225.587 103.406C225.554 103.373 225.514 103.347 225.471 103.329C225.428 103.311 225.381 103.302 225.334 103.302C225.239 103.302 225.149 103.34 225.082 103.406C225.015 103.473 224.977 103.563 224.977 103.658V105.169H223.459C223.364 105.169 223.273 105.207 223.206 105.274C223.139 105.34 223.102 105.431 223.102 105.525C223.102 105.572 223.111 105.618 223.129 105.661C223.147 105.704 223.173 105.744 223.206 105.777C223.24 105.81 223.279 105.836 223.322 105.854C223.366 105.872 223.412 105.881 223.459 105.881H224.977V107.393C224.977 107.439 224.986 107.486 225.004 107.529C225.022 107.572 225.048 107.611 225.082 107.644C225.115 107.677 225.154 107.703 225.198 107.721C225.241 107.739 225.287 107.748 225.334 107.748C225.429 107.748 225.52 107.711 225.587 107.644C225.654 107.577 225.691 107.487 225.691 107.393V105.881H227.209C227.304 105.881 227.395 105.843 227.462 105.777C227.529 105.71 227.567 105.62 227.567 105.525C227.567 105.478 227.557 105.432 227.539 105.389C227.521 105.346 227.495 105.307 227.462 105.274C227.429 105.241 227.389 105.214 227.346 105.197C227.303 105.179 227.256 105.169 227.209 105.169L227.209 105.169Z" fill="white"/>
<path d="M236.934 111.947H212.634C211.602 111.946 210.613 111.537 209.884 110.811C209.155 110.085 208.745 109.1 208.743 108.073V93.6277C208.744 93.4387 208.82 93.2576 208.954 93.1241C209.088 92.9906 209.27 92.9156 209.46 92.9156C209.65 92.9156 209.832 92.9906 209.966 93.1241C210.101 93.2576 210.176 93.4387 210.177 93.6277V97.4963L238.403 100.051C238.967 100.061 239.505 100.291 239.9 100.692C240.295 101.092 240.517 101.631 240.518 102.192C240.518 102.237 240.514 102.281 240.506 102.324L239.083 109.878C239.064 110.433 238.829 110.959 238.428 111.344C238.027 111.73 237.492 111.946 236.934 111.947ZM210.177 98.9296V108.073C210.178 108.721 210.437 109.343 210.897 109.802C211.358 110.26 211.982 110.518 212.634 110.519H236.934C237.124 110.519 237.307 110.444 237.441 110.31C237.575 110.176 237.651 109.995 237.651 109.805C237.651 109.761 237.655 109.717 237.663 109.674L239.082 102.137C239.068 101.958 238.987 101.791 238.854 101.669C238.722 101.547 238.548 101.479 238.368 101.479C238.346 101.479 238.325 101.478 238.303 101.476L210.177 98.9296Z" fill="#4BFFA5"/>
<path d="M206.176 118.608C206.836 118.608 207.371 118.076 207.371 117.419C207.371 116.762 206.836 116.229 206.176 116.229C205.517 116.229 204.982 116.762 204.982 117.419C204.982 118.076 205.517 118.608 206.176 118.608Z" fill="#4BFFA5"/>
<path d="M235.979 118.608C236.638 118.608 237.173 118.076 237.173 117.419C237.173 116.762 236.638 116.229 235.979 116.229C235.319 116.229 234.784 116.762 234.784 117.419C234.784 118.076 235.319 118.608 235.979 118.608Z" fill="#4BFFA5"/>
<path d="M237.173 116.229H205.221C205.031 116.229 204.848 116.154 204.714 116.02C204.58 115.886 204.504 115.705 204.504 115.515C204.504 115.326 204.58 115.144 204.714 115.011C204.848 114.877 205.031 114.802 205.221 114.802H237.173C237.363 114.802 237.546 114.877 237.68 115.011C237.814 115.144 237.89 115.326 237.89 115.515C237.89 115.705 237.814 115.886 237.68 116.02C237.546 116.154 237.363 116.229 237.173 116.229Z" fill="#4BFFA5"/>
<path d="M211.372 94.1036H205.16C204.97 94.1032 204.788 94.0278 204.654 93.894C204.52 93.7602 204.445 93.5789 204.445 93.3899C204.445 93.2009 204.52 93.0196 204.654 92.8858C204.788 92.752 204.97 92.6766 205.16 92.6761H211.372C211.561 92.6766 211.743 92.752 211.877 92.8858C212.011 93.0196 212.087 93.2009 212.087 93.3899C212.087 93.5789 212.011 93.7602 211.877 93.894C211.743 94.0278 211.561 94.1032 211.372 94.1036Z" fill="#4BFFA5"/>
<path d="M216.354 115.866C216.183 115.866 216.017 115.805 215.888 115.693L211.177 111.662C211.105 111.601 211.046 111.526 211.004 111.443C210.961 111.359 210.935 111.268 210.928 111.174C210.921 111.081 210.932 110.986 210.962 110.897C210.991 110.808 211.038 110.726 211.099 110.654C211.161 110.583 211.235 110.525 211.32 110.482C211.404 110.44 211.495 110.415 211.589 110.408C211.683 110.401 211.778 110.412 211.867 110.442C211.957 110.471 212.04 110.518 212.111 110.579L216.822 114.611C216.933 114.706 217.012 114.832 217.049 114.973C217.085 115.114 217.078 115.263 217.027 115.4C216.976 115.537 216.884 115.655 216.764 115.738C216.644 115.821 216.501 115.866 216.354 115.866V115.866Z" fill="#4BFFA5"/>
<path d="M217.347 111.508C217.253 111.508 217.16 111.49 217.073 111.454C216.986 111.418 216.907 111.365 216.84 111.299C216.774 111.233 216.721 111.154 216.685 111.068C216.649 110.981 216.63 110.888 216.63 110.795V99.3375C216.63 99.1482 216.706 98.9667 216.84 98.8328C216.975 98.699 217.157 98.6238 217.347 98.6238C217.537 98.6238 217.719 98.699 217.854 98.8328C217.988 98.9667 218.064 99.1482 218.064 99.3375V110.795C218.064 110.888 218.045 110.981 218.009 111.068C217.973 111.154 217.92 111.233 217.854 111.299C217.787 111.365 217.708 111.418 217.621 111.454C217.535 111.49 217.441 111.508 217.347 111.508H217.347Z" fill="#4BFFA5"/>
<path d="M232.487 111.508C232.393 111.508 232.3 111.49 232.213 111.454C232.126 111.418 232.047 111.366 231.98 111.299C231.914 111.233 231.861 111.154 231.825 111.068C231.789 110.981 231.771 110.888 231.771 110.795V100.289C231.771 100.1 231.847 99.9191 231.981 99.7856C232.115 99.6521 232.297 99.5771 232.487 99.5771C232.677 99.5771 232.859 99.6521 232.993 99.7856C233.128 99.9191 233.204 100.1 233.204 100.289V110.795C233.204 110.888 233.185 110.981 233.149 111.068C233.113 111.154 233.061 111.233 232.994 111.299C232.928 111.366 232.849 111.418 232.762 111.454C232.675 111.49 232.581 111.508 232.487 111.508H232.487Z" fill="#4BFFA5"/>
</g>
<defs>
<clipPath id="clip0_6_289">
<rect width="295.955" height="217.034" fill="white" transform="translate(0.135254 0.0292969)"/>
</clipPath>
</defs>
</svg>
