<svg width="393" height="313" viewBox="0 0 393 313" fill="none" xmlns="http://www.w3.org/2000/svg">
<path d="M391.118 185.969C397.557 234.013 388.788 282.109 344.186 300.838C299.584 319.566 248.281 298.503 229.598 253.791C210.915 209.08 254.996 182.327 276.53 138.923C320.258 50.7821 371.119 36.7703 391.118 185.969Z" fill="#F2F2F2"/>
<path d="M310.821 313C349.416 313 380.703 308.733 380.703 303.47C380.703 298.206 349.416 293.939 310.821 293.939C272.226 293.939 240.939 298.206 240.939 303.47C240.939 308.733 272.226 313 310.821 313Z" fill="#3F3D56"/>
<path d="M282.142 274.494L265.105 279.215L267.734 288.747L284.771 284.026L282.142 274.494Z" fill="#2F2E41"/>
<path d="M266.279 290.433C267.921 289.978 268.27 286.053 267.06 281.666C265.851 277.279 263.54 274.091 261.898 274.546C260.257 275 259.907 278.926 261.117 283.313C262.327 287.7 264.638 290.888 266.279 290.433Z" fill="#2F2E41"/>
<path d="M318.881 246.43C320.085 237.521 318.8 229.993 316.01 229.614C313.22 229.235 309.983 236.149 308.778 245.057C307.574 253.965 308.859 261.494 311.648 261.873C314.438 262.252 317.676 255.338 318.881 246.43Z" fill="#2F2E41"/>
<path d="M310.65 308.77C328.586 308.77 343.125 294.195 343.125 276.216C343.125 258.237 328.586 243.662 310.65 243.662C292.715 243.662 278.176 258.237 278.176 276.216C278.176 294.195 292.715 308.77 310.65 308.77Z" fill="#2F2E41"/>
<path d="M282.142 268.725L265.105 273.446L267.734 282.978L284.771 278.257L282.142 268.725Z" fill="#2F2E41"/>
<path d="M266.279 284.664C267.921 284.209 268.27 280.284 267.06 275.896C265.851 271.509 263.54 268.321 261.898 268.776C260.257 269.231 259.907 273.156 261.117 277.543C262.327 281.93 264.638 285.118 266.279 284.664Z" fill="#2F2E41"/>
<path d="M319.178 268.693C325.307 268.693 330.277 263.712 330.277 257.567C330.277 251.422 325.307 246.441 319.178 246.441C313.048 246.441 308.079 251.422 308.079 257.567C308.079 263.712 313.048 268.693 319.178 268.693Z" fill="white"/>
<path d="M322.727 256.361C324.77 256.361 326.427 254.7 326.427 252.652C326.427 250.604 324.77 248.943 322.727 248.943C320.684 248.943 319.027 250.604 319.027 252.652C319.027 254.7 320.684 256.361 322.727 256.361Z" fill="#3F3D56"/>
<path d="M348.152 298.587C360.17 297.984 369.374 286.716 368.71 273.419C368.046 260.122 357.766 249.831 345.748 250.434C333.731 251.037 331.845 260.494 332.509 273.791C333.173 287.088 336.135 299.19 348.152 298.587Z" fill="#4BFFA5"/>
<path d="M297.378 262.442C295.422 262.601 293.483 261.974 291.988 260.7C290.493 259.425 289.564 257.608 289.406 255.647C289.248 253.686 289.873 251.743 291.144 250.244C292.415 248.745 294.228 247.814 296.184 247.656C300.257 247.325 301.368 250.567 301.698 254.65C302.028 258.733 301.451 262.112 297.378 262.442Z" fill="white"/>
<path d="M329.567 208.804H277.719V235.244H329.567V208.804Z" fill="#4BFFA5"/>
<path d="M306.692 254.165C307.896 245.257 306.611 237.728 303.821 237.349C301.031 236.97 297.794 243.884 296.589 252.792C295.385 261.7 296.67 269.229 299.459 269.608C302.249 269.987 305.487 263.073 306.692 254.165Z" fill="#2F2E41"/>
<path d="M233.425 258.698C234.908 258.698 236.111 257.492 236.111 256.005C236.111 254.517 234.908 253.312 233.425 253.312C231.941 253.312 230.738 254.517 230.738 256.005C230.738 257.492 231.941 258.698 233.425 258.698Z" fill="#FF6584"/>
<path d="M346.489 146.809C346.447 146.809 346.405 146.802 346.365 146.789C237.675 112.332 141.88 116.838 80.6563 126.686C72.3245 128.025 63.9704 129.573 55.826 131.285C53.7467 131.722 51.5896 132.19 49.4146 132.677C46.8171 133.257 44.2542 133.854 41.7965 134.451C40.7352 134.703 39.6945 134.957 38.6746 135.213C37.1296 135.595 35.562 135.994 33.8816 136.432C32.0039 136.917 30.096 137.426 28.2099 137.945C28.203 137.947 28.196 137.949 28.1888 137.951L28.189 137.951C26.0586 138.534 23.9394 139.134 21.8901 139.733C20.7809 140.055 19.7098 140.371 18.684 140.684C18.5694 140.716 18.4678 140.746 18.3648 140.778L18.1444 140.845C18.0168 140.884 17.8907 140.922 17.7647 140.958L17.7566 140.961L17.7568 140.961L17.4233 141.065C17.0254 141.186 16.6372 141.304 16.2555 141.421C6.16573 144.539 0.619068 146.757 0.564272 146.779C0.514164 146.799 0.460591 146.809 0.406611 146.809C0.352631 146.808 0.299302 146.797 0.249668 146.775C0.200033 146.754 0.155066 146.723 0.117334 146.685C0.0796022 146.646 0.0498434 146.6 0.029758 146.55C0.00967265 146.5 -0.000347835 146.446 0.000271165 146.392C0.000890164 146.338 0.0121356 146.284 0.0333647 146.235C0.0545938 146.185 0.0853913 146.14 0.123999 146.102C0.162606 146.064 0.208269 146.034 0.258377 146.014C0.313576 145.992 5.88734 143.763 16.0138 140.633C16.397 140.515 16.7862 140.397 17.1852 140.276L17.4951 140.18C17.5057 140.176 17.5164 140.173 17.5272 140.169C17.6527 140.133 17.7779 140.095 17.9052 140.057L18.126 139.989C18.236 139.956 18.3444 139.923 18.4553 139.892C19.4742 139.582 20.5488 139.264 21.6608 138.942C23.711 138.342 25.8322 137.742 27.9642 137.158C27.9708 137.156 27.9777 137.154 27.9843 137.152V137.152C29.8771 136.632 31.7919 136.121 33.6757 135.634C35.3587 135.195 36.9293 134.796 38.4769 134.413C39.5011 134.158 40.5438 133.903 41.6049 133.65C44.0653 133.052 46.6335 132.454 49.2356 131.873C51.414 131.385 53.5747 130.916 55.6574 130.479C63.8144 128.763 72.1816 127.214 80.5261 125.872C141.837 116.01 237.77 111.497 346.613 146.004C346.706 146.034 346.786 146.096 346.838 146.179C346.89 146.263 346.91 146.362 346.895 146.46C346.88 146.557 346.831 146.645 346.757 146.71C346.682 146.774 346.587 146.809 346.489 146.809L346.489 146.809Z" fill="#2F2E41"/>
<path d="M98.875 140.604C102.077 132.207 102.54 124.583 99.9108 123.575C97.2811 122.568 92.5538 128.558 89.3521 136.955C86.1504 145.352 85.6867 152.976 88.3164 153.984C90.9461 154.992 95.6733 149.001 98.875 140.604Z" fill="#2F2E41"/>
<path d="M101.508 129.274C104.615 129.274 107.133 126.749 107.133 123.634C107.133 120.519 104.615 117.995 101.508 117.995C98.4008 117.995 95.8821 120.519 95.8821 123.634C95.8821 126.749 98.4008 129.274 101.508 129.274Z" fill="#4BFFA5"/>
<path d="M179.514 93.6228C178.233 93.6228 176.981 93.2421 175.916 92.5287C174.851 91.8153 174.021 90.8013 173.531 89.6149C173.04 88.4286 172.912 87.1231 173.162 85.8637C173.412 84.6043 174.029 83.4474 174.935 82.5394C175.84 81.6314 176.994 81.013 178.251 80.7625C179.507 80.5119 180.809 80.6405 181.993 81.1319C183.176 81.6233 184.188 82.4554 184.899 83.5231C185.611 84.5908 185.991 85.846 185.991 87.1302C185.989 88.8515 185.306 90.5018 184.092 91.719C182.878 92.9362 181.232 93.6208 179.514 93.6228ZM179.514 81.4619C178.396 81.4618 177.303 81.7943 176.373 82.4171C175.443 83.04 174.718 83.9252 174.29 84.961C173.862 85.9968 173.75 87.1365 173.968 88.2361C174.187 89.3357 174.725 90.3457 175.516 91.1384C176.307 91.9312 177.314 92.471 178.411 92.6897C179.508 92.9085 180.645 92.7962 181.678 92.3672C182.711 91.9381 183.595 91.2116 184.216 90.2794C184.837 89.3472 185.169 88.2513 185.169 87.1302C185.167 85.6273 184.571 84.1866 183.511 83.1239C182.451 82.0613 181.014 81.4635 179.514 81.4619Z" fill="#3F3D56"/>
<path d="M224.732 167.797C223.451 167.797 222.199 167.416 221.134 166.703C220.069 165.99 219.239 164.976 218.749 163.789C218.258 162.603 218.13 161.297 218.38 160.038C218.63 158.779 219.247 157.622 220.153 156.714C221.058 155.806 222.212 155.187 223.469 154.937C224.725 154.686 226.027 154.815 227.211 155.306C228.394 155.798 229.406 156.63 230.117 157.697C230.829 158.765 231.209 160.02 231.209 161.304C231.207 163.026 230.524 164.676 229.31 165.893C228.096 167.11 226.45 167.795 224.732 167.797ZM224.732 155.636C223.614 155.636 222.521 155.969 221.591 156.591C220.661 157.214 219.936 158.1 219.508 159.135C219.08 160.171 218.968 161.311 219.186 162.41C219.405 163.51 219.943 164.52 220.734 165.313C221.525 166.105 222.532 166.645 223.629 166.864C224.726 167.083 225.863 166.971 226.896 166.541C227.93 166.112 228.813 165.386 229.434 164.454C230.055 163.522 230.387 162.426 230.387 161.304C230.385 159.802 229.789 158.361 228.729 157.298C227.669 156.236 226.232 155.638 224.732 155.636Z" fill="#3F3D56"/>
<path d="M128.13 204.06C126.849 204.06 125.597 203.679 124.532 202.966C123.467 202.253 122.637 201.239 122.147 200.052C121.657 198.866 121.528 197.561 121.778 196.301C122.028 195.042 122.645 193.885 123.551 192.977C124.456 192.069 125.61 191.451 126.867 191.2C128.123 190.949 129.425 191.078 130.609 191.569C131.792 192.061 132.804 192.893 133.515 193.96C134.227 195.028 134.607 196.283 134.607 197.567C134.605 199.289 133.922 200.939 132.708 202.156C131.494 203.373 129.848 204.058 128.13 204.06ZM128.13 191.899C127.012 191.899 125.919 192.232 124.989 192.855C124.059 193.478 123.334 194.363 122.906 195.399C122.478 196.434 122.366 197.574 122.585 198.674C122.803 199.773 123.341 200.783 124.132 201.576C124.923 202.369 125.931 202.908 127.027 203.127C128.124 203.346 129.261 203.234 130.294 202.804C131.328 202.375 132.211 201.649 132.832 200.717C133.453 199.784 133.785 198.689 133.785 197.567C133.783 196.065 133.187 194.624 132.127 193.561C131.067 192.499 129.63 191.901 128.13 191.899Z" fill="#3F3D56"/>
<path d="M78.9763 313C117.571 313 148.859 308.733 148.859 303.47C148.859 298.206 117.571 293.939 78.9763 293.939C40.3814 293.939 9.09399 298.206 9.09399 303.47C9.09399 308.733 40.3814 313 78.9763 313Z" fill="#3F3D56"/>
<path d="M75.1961 289.459C93.1314 289.459 107.671 274.884 107.671 256.905C107.671 238.926 93.1314 224.351 75.1961 224.351C57.2609 224.351 42.7214 238.926 42.7214 256.905C42.7214 274.884 57.2609 289.459 75.1961 289.459Z" fill="#2F2E41"/>
<path d="M70.2634 282.454H60.3977V300.173H70.2634V282.454Z" fill="#2F2E41"/>
<path d="M89.9949 282.454H80.1292V300.173H89.9949V282.454Z" fill="#2F2E41"/>
<path d="M68.6192 303.47C73.1597 303.47 76.8406 302.086 76.8406 300.379C76.8406 298.672 73.1597 297.289 68.6192 297.289C64.0786 297.289 60.3977 298.672 60.3977 300.379C60.3977 302.086 64.0786 303.47 68.6192 303.47Z" fill="#2F2E41"/>
<path d="M88.3506 303.058C92.8912 303.058 96.5721 301.674 96.5721 299.967C96.5721 298.26 92.8912 296.876 88.3506 296.876C83.81 296.876 80.1292 298.26 80.1292 299.967C80.1292 301.674 83.81 303.058 88.3506 303.058Z" fill="#2F2E41"/>
<path d="M76.0184 259.789C82.1482 259.789 87.1173 254.808 87.1173 248.663C87.1173 242.518 82.1482 237.537 76.0184 237.537C69.8886 237.537 64.9194 242.518 64.9194 248.663C64.9194 254.808 69.8886 259.789 76.0184 259.789Z" fill="white"/>
<path d="M76.0182 252.372C78.0615 252.372 79.7179 250.712 79.7179 248.663C79.7179 246.615 78.0615 244.955 76.0182 244.955C73.975 244.955 72.3186 246.615 72.3186 248.663C72.3186 250.712 73.975 252.372 76.0182 252.372Z" fill="#3F3D56"/>
<path d="M43.6947 226.631C41.0725 214.858 49.4546 202.963 62.4166 200.062C75.3786 197.161 88.0121 204.352 90.6342 216.124C93.2564 227.896 84.666 232.238 71.704 235.139C58.7421 238.04 46.3169 238.403 43.6947 226.631Z" fill="#4BFFA5"/>
<path d="M64.0973 195.917C82.0326 195.917 96.572 181.342 96.572 163.363C96.572 145.384 82.0326 130.809 64.0973 130.809C46.162 130.809 31.6226 145.384 31.6226 163.363C31.6226 181.342 46.162 195.917 64.0973 195.917Z" fill="#2F2E41"/>
<path d="M59.1643 188.912H49.2986V206.632H59.1643V188.912Z" fill="#2F2E41"/>
<path d="M78.8958 188.912H69.03V206.632H78.8958V188.912Z" fill="#2F2E41"/>
<path d="M57.52 209.928C62.0606 209.928 65.7415 208.544 65.7415 206.837C65.7415 205.13 62.0606 203.747 57.52 203.747C52.9794 203.747 49.2986 205.13 49.2986 206.837C49.2986 208.544 52.9794 209.928 57.52 209.928Z" fill="#2F2E41"/>
<path d="M77.2515 209.516C81.7921 209.516 85.4729 208.132 85.4729 206.425C85.4729 204.718 81.7921 203.334 77.2515 203.334C72.7109 203.334 69.03 204.718 69.03 206.425C69.03 208.132 72.7109 209.516 77.2515 209.516Z" fill="#2F2E41"/>
<path d="M64.9195 166.247C71.0493 166.247 76.0185 161.266 76.0185 155.121C76.0185 148.976 71.0493 143.995 64.9195 143.995C58.7897 143.995 53.8206 148.976 53.8206 155.121C53.8206 161.266 58.7897 166.247 64.9195 166.247Z" fill="white"/>
<path d="M64.9194 158.83C66.9626 158.83 68.619 157.17 68.619 155.121C68.619 153.073 66.9626 151.413 64.9194 151.413C62.8761 151.413 61.2197 153.073 61.2197 155.121C61.2197 157.17 62.8761 158.83 64.9194 158.83Z" fill="#3F3D56"/>
<path d="M32.5956 133.089C29.9734 121.317 38.3555 109.421 51.3175 106.52C64.2794 103.619 76.9129 110.81 79.5351 122.582C82.1573 134.354 73.5669 138.696 60.6049 141.597C47.6429 144.498 35.2178 144.861 32.5956 133.089Z" fill="#4BFFA5"/>
<path d="M42.1907 155.233C43.3971 152.683 37.8067 147.493 29.7042 143.641C21.6017 139.788 14.0553 138.733 12.8489 141.282C11.6425 143.832 17.2329 149.022 25.3355 152.875C33.438 156.727 40.9843 157.783 42.1907 155.233Z" fill="#2F2E41"/>
<path d="M48.1458 175.107C48.1458 178.293 56.3296 184.585 65.4108 184.585C74.4919 184.585 83.0066 175.615 83.0066 172.429C83.0066 169.242 74.492 173.047 65.4108 173.047C56.3296 173.047 48.1458 171.921 48.1458 175.107Z" fill="white"/>
<path d="M319.064 110.631C336.999 110.631 351.539 96.0559 351.539 78.0767C351.539 60.0975 336.999 45.5225 319.064 45.5225C301.129 45.5225 286.589 60.0975 286.589 78.0767C286.589 96.0559 301.129 110.631 319.064 110.631Z" fill="#2F2E41"/>
<path d="M338.165 100.572L328.457 102.334L331.605 119.77L341.313 118.008L338.165 100.572Z" fill="#2F2E41"/>
<path d="M318.751 104.1L309.043 105.861L312.191 123.297L321.899 121.536L318.751 104.1Z" fill="#2F2E41"/>
<path d="M317.344 126.965C320.809 124.023 322.726 120.583 321.625 119.28C320.525 117.978 316.824 119.306 313.359 122.248C309.894 125.19 307.977 128.63 309.078 129.933C310.178 131.235 313.879 129.906 317.344 126.965Z" fill="#2F2E41"/>
<path d="M336.355 123.515C339.82 120.573 341.737 117.132 340.637 115.83C339.536 114.527 335.835 115.856 332.371 118.798C328.906 121.739 326.989 125.18 328.089 126.482C329.19 127.785 332.891 126.456 336.355 123.515Z" fill="#2F2E41"/>
<path d="M316.79 81.2396C322.92 81.2396 327.889 76.2582 327.889 70.1134C327.889 63.9686 322.92 58.9873 316.79 58.9873C310.661 58.9873 305.691 63.9686 305.691 70.1134C305.691 76.2582 310.661 81.2396 316.79 81.2396Z" fill="white"/>
<path d="M312.229 69.8344C314.272 69.8344 315.928 68.174 315.928 66.1257C315.928 64.0774 314.272 62.417 312.229 62.417C310.185 62.417 308.529 64.0774 308.529 66.1257C308.529 68.174 310.185 69.8344 312.229 69.8344Z" fill="#3F3D56"/>
<path d="M344.682 42.6613C345.17 30.6092 334.808 20.4011 321.538 19.8607C308.268 19.3203 297.114 28.6524 296.626 40.7045C296.138 52.7565 305.362 55.4949 318.632 56.0352C331.903 56.5756 344.193 54.7134 344.682 42.6613Z" fill="#4BFFA5"/>
<path d="M304.905 75.7824C305.534 73.0316 298.958 69.1734 290.217 67.165C281.476 65.1565 273.88 65.7583 273.251 68.509C272.622 71.2598 279.198 75.1179 287.939 77.1264C296.68 79.1349 304.276 78.5331 304.905 75.7824Z" fill="#2F2E41"/>
<path d="M368.651 86.4093C369.28 83.6585 362.704 79.8004 353.963 77.7919C345.222 75.7834 337.626 76.3852 336.998 79.136C336.369 81.8868 342.945 85.7449 351.686 87.7534C360.426 89.7618 368.022 89.1601 368.651 86.4093Z" fill="#2F2E41"/>
<path d="M327.983 90.906C328.156 91.8645 328.139 92.8478 327.933 93.7997C327.727 94.7517 327.336 95.6536 326.783 96.454C326.229 97.2545 325.523 97.9378 324.706 98.4649C323.889 98.992 322.976 99.3526 322.02 99.5261C321.064 99.6996 320.083 99.6827 319.134 99.4762C318.184 99.2697 317.284 98.8777 316.486 98.3226C315.687 97.7676 315.006 97.0603 314.48 96.2412C313.954 95.422 313.594 94.5071 313.421 93.5486C312.693 89.5176 315.802 88.0912 319.823 87.3615C323.845 86.6317 327.255 86.875 327.983 90.906Z" fill="white"/>
<path d="M239.793 40.4693L239.292 41.1226L276.699 69.9681L277.201 69.3148L239.793 40.4693Z" fill="#3F3D56"/>
<path d="M221.866 56.0427C237.304 56.0427 249.819 43.4971 249.819 28.0214C249.819 12.5456 237.304 0 221.866 0C206.428 0 193.913 12.5456 193.913 28.0214C193.913 43.4971 206.428 56.0427 221.866 56.0427Z" fill="#FF6584"/>
<path d="M37.3803 299.462C40.4873 299.462 43.006 296.937 43.006 293.823C43.006 290.708 40.4873 288.183 37.3803 288.183C34.2733 288.183 31.7546 290.708 31.7546 293.823C31.7546 296.937 34.2733 299.462 37.3803 299.462Z" fill="#4BFFA5"/>
<path d="M129.375 287.219H114.576V302.054H129.375V287.219Z" fill="#FF6584"/>
<path d="M114.662 302.758C117.769 302.758 120.288 300.234 120.288 297.119C120.288 294.004 117.769 291.479 114.662 291.479C111.555 291.479 109.036 294.004 109.036 297.119C109.036 300.234 111.555 302.758 114.662 302.758Z" fill="#4BFFA5"/>
</svg>
