<svg width="296" height="218" viewBox="0 0 296 218" fill="none" xmlns="http://www.w3.org/2000/svg">
<g clip-path="url(#clip0_6_395)">
<path d="M174.221 192.641C177.072 198.045 174.655 216.296 174.655 216.296C174.655 216.296 158.824 209.11 155.974 203.709C155.295 202.424 154.859 201.008 154.69 199.542C154.521 198.076 154.624 196.589 154.991 195.166C155.359 193.742 155.985 192.411 156.832 191.247C157.68 190.083 158.734 189.109 159.933 188.382C161.131 187.655 162.452 187.188 163.819 187.009C165.186 186.829 166.573 186.941 167.9 187.336C169.227 187.732 170.468 188.404 171.553 189.314C172.637 190.224 173.544 191.355 174.221 192.641V192.641Z" fill="#F1F1F1"/>
<path d="M174.884 216.272L174.548 216.348C171.309 199.846 159.997 188.655 159.884 188.544L160.115 188.272C160.229 188.383 171.621 199.65 174.884 216.272Z" fill="white"/>
<path d="M200.123 198.794C196.255 206.319 174.445 216.514 174.445 216.514C174.445 216.514 170.849 191.294 174.716 183.771C175.636 181.982 176.875 180.405 178.363 179.13C179.852 177.854 181.56 176.906 183.39 176.338C185.22 175.771 187.136 175.595 189.029 175.822C190.923 176.049 192.756 176.673 194.424 177.66C196.092 178.646 197.563 179.975 198.752 181.571C199.942 183.167 200.826 184.999 201.355 186.961C201.885 188.924 202.048 190.979 201.837 193.009C201.625 195.039 201.043 197.005 200.123 198.794Z" fill="#F1F1F1"/>
<path d="M174.638 216.787L174.31 216.417C190.092 200.344 194.178 177.927 194.217 177.703L194.684 177.797C194.645 178.023 190.534 200.597 174.638 216.787Z" fill="white"/>
<path d="M280.034 8.23059H0.157959V150.647H280.034V8.23059Z" fill="#E6E6E6"/>
<path d="M272.031 20.4431H8.16113V139.266H272.031V20.4431Z" fill="white"/>
<path d="M279.914 0.00231934H0.0385742V12.7527H279.914V0.00231934Z" fill="#4BFFA5"/>
<path d="M8.87417 9.01604C10.0913 9.01604 11.0779 7.95798 11.0779 6.65279C11.0779 5.34761 10.0913 4.28955 8.87417 4.28955C7.65707 4.28955 6.67041 5.34761 6.67041 6.65279C6.67041 7.95798 7.65707 9.01604 8.87417 9.01604Z" fill="white"/>
<path d="M17.2389 9.01604C18.456 9.01604 19.4427 7.95798 19.4427 6.65279C19.4427 5.34761 18.456 4.28955 17.2389 4.28955C16.0218 4.28955 15.0352 5.34761 15.0352 6.65279C15.0352 7.95798 16.0218 9.01604 17.2389 9.01604Z" fill="white"/>
<path d="M25.6042 9.01604C26.8213 9.01604 27.8079 7.95798 27.8079 6.65279C27.8079 5.34761 26.8213 4.28955 25.6042 4.28955C24.387 4.28955 23.4004 5.34761 23.4004 6.65279C23.4004 7.95798 24.387 9.01604 25.6042 9.01604Z" fill="white"/>
<path d="M111.654 56.3131C111.061 56.3152 110.581 57.1866 110.582 58.2594C110.583 59.3292 111.062 60.1959 111.654 60.198H222.15C222.743 60.1959 223.223 59.3245 223.222 58.2517C223.221 57.1819 222.742 56.3152 222.15 56.3131H111.654Z" fill="#E6E6E6"/>
<path d="M111.654 67.9689C111.061 67.971 110.581 68.8424 110.582 69.9151C110.583 70.9849 111.062 71.8516 111.654 71.8537H193.305C193.898 71.8516 194.378 70.9802 194.376 69.9075C194.375 68.8377 193.896 67.971 193.305 67.9689H111.654Z" fill="#E6E6E6"/>
<path d="M111.654 79.3608C111.061 79.363 110.581 80.2344 110.582 81.3071C110.583 82.3769 111.062 83.2436 111.654 83.2457H222.15C222.743 83.2436 223.223 82.3722 223.222 81.2994C223.221 80.2297 222.742 79.363 222.15 79.3608H111.654Z" fill="#E6E6E6"/>
<path d="M111.654 91.0166C111.061 91.0187 110.581 91.8901 110.582 92.9629C110.583 94.0326 111.062 94.8993 111.654 94.9015H193.305C193.898 94.8993 194.378 94.028 194.376 92.9552C194.375 91.8854 193.896 91.0187 193.305 91.0166H111.654Z" fill="#E6E6E6"/>
<path d="M25.9073 99.2943C25.3142 99.2964 24.8343 100.168 24.8355 101.241C24.8366 102.31 25.3158 103.177 25.9073 103.179H80.4496C81.0428 103.177 81.5227 102.306 81.5215 101.233C81.5203 100.163 81.0411 99.2964 80.4496 99.2943H25.9073Z" fill="#E6E6E6"/>
<path d="M25.9073 110.95C25.3142 110.952 24.8343 111.824 24.8355 112.896C24.8366 113.966 25.3158 114.833 25.9073 114.835H51.604C52.1971 114.833 52.677 113.961 52.6758 112.889C52.6746 111.819 52.1954 110.952 51.604 110.95H25.9073Z" fill="#E6E6E6"/>
<path d="M74.0569 50.0502C72.9999 46.7938 71.2931 43.8238 69.0558 41.3474C66.8184 38.871 64.1042 36.9478 61.1025 35.7118C58.1008 34.4759 54.8838 33.957 51.6758 34.1913C48.4679 34.4256 45.3462 35.4075 42.5285 37.0685C39.7108 38.7295 37.2648 41.0296 35.3612 43.8085C33.4576 46.5873 32.1422 49.778 31.5067 53.1581C30.8712 56.5381 30.9308 60.0262 31.6815 63.379C32.4323 66.7317 33.8559 69.8685 35.8533 72.5707C36.0517 72.8388 36.2581 73.1069 36.4683 73.3665C36.4842 73.3835 36.496 73.4005 36.5119 73.4175C37.0293 74.0566 37.5791 74.6647 38.1589 75.2389C38.3097 75.3879 38.4684 75.5411 38.6271 75.6857C38.9288 75.9751 39.2382 76.2517 39.5597 76.5156C40.1873 77.0461 40.8418 77.5391 41.5201 77.9923L41.5439 78.005C41.9843 78.2987 42.4327 78.571 42.8892 78.8306L43.0756 78.9327C43.5042 79.1711 43.9408 79.3966 44.3892 79.6051C44.4805 79.6477 44.5797 79.6902 44.6709 79.7328C44.6789 79.737 44.6829 79.737 44.6909 79.7413C45.5969 80.1453 46.5277 80.4823 47.4767 80.7499C49.3369 81.2816 51.2539 81.5505 53.1791 81.5499C53.8815 81.5499 54.576 81.5159 55.2625 81.4435C56.8312 81.2883 58.3798 80.953 59.8818 80.4435C59.8858 80.4435 59.8897 80.4392 59.8936 80.4392C60.8424 80.1151 61.7693 79.7212 62.6676 79.2604C62.6715 79.2562 62.6796 79.2562 62.6835 79.2519C62.8857 79.1498 63.0803 79.0391 63.2787 78.9327L63.374 78.8817C63.5327 78.7923 63.6914 78.7029 63.8501 78.6093C64.247 78.3753 64.6359 78.1284 65.0209 77.8646C65.128 77.7965 65.2311 77.7242 65.3383 77.6476C65.6874 77.4007 66.0327 77.1369 66.366 76.8688C66.4257 76.822 66.4891 76.7752 66.5487 76.7241C70.2665 73.6978 72.9953 69.487 74.3441 64.6953C75.6928 59.9036 75.5923 54.7769 74.0569 50.0502Z" fill="white"/>
<path d="M60.4746 67.6149C62.3044 67.6149 63.7878 66.0241 63.7878 64.0619C63.7878 62.0996 62.3044 60.5089 60.4746 60.5089C58.6447 60.5089 57.1614 62.0996 57.1614 64.0619C57.1614 66.0241 58.6447 67.6149 60.4746 67.6149Z" fill="#2F2E41"/>
<path d="M61.3976 60.6067C61.9711 60.6067 62.5347 60.7663 63.0334 61.0699C63.5321 61.3735 63.9488 61.8107 64.2428 62.3387C64.5367 62.8667 64.6978 63.4675 64.7104 64.0823C64.7229 64.6971 64.5865 65.3048 64.3144 65.8462C64.6016 65.4608 64.8108 65.0154 64.9286 64.5385C65.0464 64.0617 65.0703 63.5637 64.9988 63.0764C64.9272 62.589 64.7618 62.123 64.513 61.708C64.2643 61.293 63.9376 60.9382 63.5539 60.666C63.1702 60.3939 62.7378 60.2104 62.2844 60.1274C61.8309 60.0443 61.3662 60.0635 60.92 60.1836C60.4738 60.3037 60.0559 60.5222 59.6928 60.8251C59.3297 61.128 59.0294 61.5087 58.811 61.943C59.1208 61.5259 59.5142 61.1892 59.9621 60.9578C60.4101 60.7265 60.9009 60.6065 61.398 60.6067H61.3976Z" fill="#2F2E41"/>
<path d="M54.2832 64.0542C59.6585 64.0542 64.016 59.3813 64.016 53.617C64.016 47.8527 59.6585 43.1798 54.2832 43.1798C48.9078 43.1798 44.5503 47.8527 44.5503 53.617C44.5503 59.3813 48.9078 64.0542 54.2832 64.0542Z" fill="#2F2E41"/>
<path d="M46.6443 47.1414C48.3214 45.1188 50.6656 43.8741 53.1822 43.6699C55.6989 43.4656 58.1911 44.3179 60.1328 46.0468C60.0535 45.9656 59.9741 45.8838 59.8919 45.8051C57.9693 43.9581 55.4412 43.0057 52.8638 43.1576C50.2863 43.3094 47.8707 44.553 46.1483 46.6148C44.4259 48.6766 43.5379 51.3876 43.6795 54.1516C43.8211 56.9155 44.9807 59.506 46.9034 61.353C46.9219 61.3707 46.9404 61.3884 46.959 61.406C47.0415 61.4847 47.1264 61.5592 47.211 61.6345C45.3824 59.7691 44.3012 57.2148 44.1956 54.5107C44.0899 51.8066 44.9681 49.1643 46.6447 47.1414H46.6443Z" fill="#2F2E41"/>
<path d="M54.2006 63.9657C57.6626 63.9657 60.469 60.9561 60.469 57.2436C60.469 53.5311 57.6626 50.5215 54.2006 50.5215C50.7386 50.5215 47.9321 53.5311 47.9321 57.2436C47.9321 60.9561 50.7386 63.9657 54.2006 63.9657Z" fill="#A0616A"/>
<path d="M65.4177 74.7581V77.0135C65.0327 77.2774 64.6438 77.5242 64.2469 77.7582C64.0882 77.8519 63.9295 77.9412 63.7708 78.0306L63.6755 78.0817C63.4771 78.188 63.2825 78.2987 63.0802 78.4008C63.0764 78.4051 63.0682 78.4051 63.0644 78.4093C62.1661 78.8701 61.2392 79.264 60.2904 79.5881C60.2865 79.5881 60.2826 79.5924 60.2786 79.5924C58.7766 80.1019 57.228 80.4372 55.6593 80.5924C54.9728 80.6648 54.2783 80.6988 53.5759 80.6988C51.6507 80.6994 49.7337 80.4305 47.8735 79.8988C46.9245 79.6312 45.9937 79.2943 45.0877 78.8902C45.0797 78.886 45.0757 78.886 45.0677 78.8817C44.9765 78.8392 44.8772 78.7966 44.786 78.754C44.3376 78.5455 43.901 78.32 43.4724 78.0817L43.286 77.9795C42.8295 77.7199 42.3811 77.4476 41.9407 77.1539L41.9169 77.1412C41.2386 76.688 40.5841 76.195 39.9565 75.6645C39.635 75.4007 39.3256 75.124 39.0239 74.8347C38.8652 74.69 38.7065 74.5368 38.5557 74.3878C37.9759 73.8136 37.4261 73.2056 36.9087 72.5664C36.9773 72.1232 37.0782 71.6864 37.2104 71.26L37.2143 71.2557C37.238 71.1831 37.2658 71.112 37.2976 71.0429C37.3195 70.9819 37.3447 70.9222 37.373 70.8642C38.0833 69.4386 39.3692 69.0854 40.9645 69.0088C41.8653 68.9662 42.8613 69.013 43.9131 69.0003C44.4686 68.996 45.0439 68.9747 45.6194 68.9194C49.2504 68.5662 48.5918 66.2682 48.7544 65.0298C48.9171 63.8298 49.9251 64.8681 49.9925 64.9362L49.9964 64.9405C52.0512 65.9717 54.3246 66.3991 56.584 66.1788C56.9729 66.1278 57.3618 66.098 57.7507 66.0852C58.7745 66.0724 58.5523 66.3874 58.1992 66.647C58.0278 66.7679 57.8488 66.876 57.6635 66.9704C57.6635 66.9704 57.5007 68.0343 57.3341 69.6259C57.1754 71.1493 59.8976 71.8643 60.1237 71.9196C60.1284 71.9229 60.134 71.9244 60.1396 71.9238C61.1338 71.6474 62.1805 71.6769 63.1597 72.0089H63.1636C63.7231 72.2296 64.2223 72.5966 64.616 73.0767C65.0096 73.5568 65.2852 74.1348 65.4177 74.7581Z" fill="#CBCBCB"/>
<path d="M45.1273 77.4943C45.1273 77.8092 45.1196 78.1114 45.1075 78.3965C45.1037 78.5667 45.0957 78.7327 45.0878 78.8902C45.0798 78.8859 45.0758 78.8859 45.0678 78.8816C44.9765 78.8391 44.8773 78.7965 44.7861 78.754C44.3377 78.5455 43.9011 78.3199 43.4725 78.0816L43.2861 77.9795C42.8296 77.7199 42.3812 77.4475 41.9408 77.1539C41.9526 77.0049 41.9725 76.856 41.9923 76.7071C42.0359 76.3794 42.0718 76.0474 42.0956 75.7198C42.2516 73.4177 41.8625 71.1107 40.9646 69.013V69.0088C40.8851 68.8386 40.8376 68.7449 40.8376 68.7449C40.8376 68.7449 41.9923 67.681 43.6391 68.7449C43.7444 68.8112 43.8372 68.8978 43.9131 69.0003C44.9052 70.2556 45.175 74.4771 45.1273 77.4943Z" fill="#2F2E41"/>
<path d="M63.1477 76.9156C63.1319 77.3922 63.108 77.8901 63.0803 78.3965V78.4008C63.0764 78.405 63.0683 78.405 63.0644 78.4093C62.1661 78.8701 61.2393 79.264 60.2905 79.5881C60.2866 79.5881 60.2827 79.5923 60.2786 79.5923L60.235 78.3965L60.231 78.2391L60.0207 72.4175C60.0151 72.2857 60.0345 72.154 60.0776 72.0305C60.1207 71.9069 60.1867 71.794 60.2716 71.6986C60.3566 71.6031 60.4586 71.5271 60.5717 71.4751C60.6848 71.4232 60.8065 71.3963 60.9295 71.3961H62.9414C63.0406 71.3961 63.1121 71.6131 63.1598 72.0047V72.0089C63.2573 73.6429 63.2533 75.2821 63.1477 76.9156Z" fill="#2F2E41"/>
<path d="M48.8394 48.8409V55.5647H50.291L52.1383 53.4421L51.891 55.5647H58.3079L57.9111 53.4421L58.7047 55.5647H59.7278V48.8409H48.8394Z" fill="#2F2E41"/>
<path d="M47.8496 56.8015C48.1229 56.8015 48.3445 56.3659 48.3445 55.8287C48.3445 55.2914 48.1229 54.8558 47.8496 54.8558C47.5763 54.8558 47.3547 55.2914 47.3547 55.8287C47.3547 56.3659 47.5763 56.8015 47.8496 56.8015Z" fill="#A0616A"/>
<path d="M60.552 56.8015C60.8253 56.8015 61.0468 56.3659 61.0468 55.8287C61.0468 55.2914 60.8253 54.8558 60.552 54.8558C60.2787 54.8558 60.0571 55.2914 60.0571 55.8287C60.0571 56.3659 60.2787 56.8015 60.552 56.8015Z" fill="#A0616A"/>
<path d="M74.0569 50.0502C72.9999 46.7938 71.2931 43.8238 69.0558 41.3474C66.8184 38.871 64.1042 36.9478 61.1025 35.7118C58.1008 34.4759 54.8838 33.957 51.6758 34.1913C48.4679 34.4256 45.3462 35.4075 42.5285 37.0685C39.7108 38.7295 37.2648 41.0296 35.3612 43.8085C33.4576 46.5873 32.1422 49.778 31.5067 53.1581C30.8712 56.5381 30.9308 60.0262 31.6815 63.379C32.4323 66.7317 33.8559 69.8685 35.8533 72.5707C36.0517 72.8388 36.2581 73.1069 36.4683 73.3665C36.4842 73.3835 36.496 73.4005 36.5119 73.4175C37.0293 74.0566 37.5791 74.6647 38.1589 75.2389C38.3097 75.3879 38.4684 75.5411 38.6271 75.6857C38.9288 75.9751 39.2382 76.2517 39.5597 76.5156C40.1873 77.0461 40.8418 77.5391 41.5201 77.9923L41.5439 78.005C41.9843 78.2987 42.4327 78.571 42.8892 78.8306L43.0756 78.9327C43.5042 79.1711 43.9408 79.3966 44.3892 79.6051C44.4805 79.6477 44.5797 79.6902 44.6709 79.7328C44.6789 79.737 44.6829 79.737 44.6909 79.7413C45.5969 80.1453 46.5277 80.4823 47.4767 80.7499C49.3369 81.2816 51.2539 81.5505 53.1791 81.5499C53.8815 81.5499 54.576 81.5159 55.2625 81.4435C56.8312 81.2883 58.3798 80.953 59.8818 80.4435C59.8858 80.4435 59.8897 80.4392 59.8936 80.4392C60.8424 80.1151 61.7693 79.7212 62.6676 79.2604C62.6715 79.2562 62.6796 79.2562 62.6835 79.2519C62.8857 79.1498 63.0803 79.0391 63.2787 78.9327L63.374 78.8817C63.5327 78.7923 63.6914 78.7029 63.8501 78.6093C64.247 78.3753 64.6359 78.1284 65.0209 77.8646C65.128 77.7965 65.2311 77.7242 65.3383 77.6476C65.6874 77.4007 66.0327 77.1369 66.366 76.8688C66.4257 76.822 66.4891 76.7752 66.5487 76.7241C70.2665 73.6978 72.9953 69.487 74.3441 64.6953C75.6928 59.9036 75.5923 54.7769 74.0569 50.0502ZM65.8184 75.69C65.6874 75.8006 65.5526 75.907 65.4177 76.0049C65.2867 76.1113 65.1557 76.2134 65.0209 76.307C64.9058 76.3964 64.7907 76.4815 64.6715 76.5624C64.5723 76.6347 64.4731 76.7028 64.3739 76.7709C64.0447 76.9922 63.7114 77.205 63.374 77.4093C63.3382 77.4305 63.3025 77.4518 63.2667 77.4731C63.1159 77.5625 62.9652 77.6476 62.8144 77.7327C62.7945 77.7454 62.7706 77.754 62.7509 77.7667L62.727 77.7795C62.5366 77.8859 62.3422 77.988 62.1477 78.0859C61.3973 78.4734 60.6245 78.8089 59.8341 79.0902C59.731 79.1285 59.6277 79.1668 59.5246 79.2008C58.103 79.6857 56.6368 80.0053 55.1515 80.1541C54.5006 80.2179 53.8418 80.252 53.1791 80.252C51.3581 80.256 49.5447 80.0013 47.7861 79.4945C46.8836 79.2418 45.9991 78.9204 45.1392 78.5327C45.048 78.4944 44.9567 78.4519 44.8693 78.4136C44.8218 78.3923 44.778 78.371 44.7304 78.3455C44.3574 78.171 43.9884 77.9795 43.6273 77.7795L43.4527 77.6816C43.0122 77.4348 42.5796 77.1709 42.1589 76.8901C42.0043 76.7879 41.8494 76.6815 41.6987 76.5709C41.2224 76.2347 40.7581 75.873 40.3057 75.4942C40.0001 75.2474 39.7066 74.9836 39.4207 74.7112C39.27 74.575 39.1231 74.4261 38.9803 74.2857C38.4177 73.7285 37.885 73.1374 37.385 72.5154C37.2184 72.3111 37.0556 72.1068 36.9008 71.894C36.8656 71.8519 36.8325 71.8079 36.8016 71.7621C34.2232 68.273 32.6723 64.0395 32.3468 59.6014C32.0212 55.1633 32.9357 50.7218 34.9736 46.8433C37.0115 42.9648 40.0804 39.825 43.789 37.8245C47.4977 35.824 51.6779 35.0534 55.7966 35.611C59.9153 36.1685 63.7858 38.0289 66.9145 40.9549C70.0433 43.881 72.2884 47.74 73.3636 52.0399C74.4388 56.3399 74.2953 60.8858 72.9515 65.0979C71.6077 69.31 69.1244 72.9975 65.8184 75.69H65.8184Z" fill="#CBCBCB"/>
<path d="M210.063 85.6013C210.259 85.7544 210.443 85.9238 210.615 86.108L231.946 81.596L233.66 76.2382L241.539 77.955L239.364 87.7563C239.188 88.5481 238.778 89.2574 238.194 89.7778C237.611 90.2981 236.886 90.6014 236.128 90.6422L211.422 91.9695C210.976 92.8499 210.29 93.5635 209.456 94.0156C208.621 94.4676 207.679 94.6366 206.753 94.5002C205.827 94.3637 204.962 93.9282 204.273 93.2515C203.583 92.5749 203.102 91.6892 202.894 90.7123C202.685 89.7354 202.759 88.7136 203.105 87.7827C203.451 86.8518 204.054 86.056 204.832 85.5012C205.61 84.9463 206.527 84.6587 207.462 84.6766C208.396 84.6945 209.303 85.017 210.063 85.6013Z" fill="#FFB7B7"/>
<path d="M231.427 80.5364C231.287 80.2721 231.202 79.9784 231.177 79.6755C231.153 79.3727 231.189 79.0677 231.285 78.7814L234.614 68.7812C234.896 67.2555 235.731 65.9118 236.935 65.0448C238.139 64.1777 239.615 63.8581 241.038 64.156C242.462 64.4539 243.717 65.3449 244.529 66.6338C245.341 67.9227 245.643 69.5042 245.37 71.0317L244.887 81.672C244.874 81.9757 244.799 82.2726 244.669 82.5425C244.538 82.8125 244.355 83.0491 244.132 83.2363C243.908 83.4235 243.65 83.5568 243.374 83.6273C243.098 83.6977 242.811 83.7036 242.533 83.6445L232.759 81.5675C232.481 81.5085 232.218 81.3859 231.988 81.2079C231.758 81.03 231.567 80.8009 231.427 80.5364Z" fill="#4BFFA5"/>
<path d="M226.077 210.234L219.806 210.234L216.822 184.293L226.078 184.294L226.077 210.234Z" fill="#FFB7B7"/>
<path d="M227.676 216.753L207.455 216.752V216.478C207.455 214.239 208.284 212.093 209.76 210.51C211.236 208.927 213.238 208.038 215.326 208.038H215.326L227.677 208.038L227.676 216.753Z" fill="#2F2E41"/>
<path d="M285.465 203.185L279.656 205.721L267.771 182.903L276.344 179.16L285.465 203.185Z" fill="#FFB7B7"/>
<path d="M289.238 208.577L270.509 216.753L270.413 216.499C269.626 214.426 269.639 212.102 270.45 210.039C271.26 207.976 272.801 206.343 274.735 205.499L274.735 205.499L286.174 200.505L289.238 208.577Z" fill="#2F2E41"/>
<path d="M231.783 102.519L228.897 86.1474C228.27 83.7368 228.159 81.2053 228.572 78.7421C228.984 76.2788 229.911 73.9475 231.282 71.922L241.831 56.7972L251.906 57.115C256.67 69.4962 257.548 83.2037 254.405 96.1667L252.553 103.807C260.859 111.841 266.428 134.366 271.497 159.537L285.393 192.492L261.486 200.276L245.997 151.944L232.161 200.635L211.9 199.802L227.31 124.486L231.783 102.519Z" fill="#2F2E41"/>
<path d="M247.836 53.7403C253.265 53.7403 257.665 49.0212 257.665 43.2C257.665 37.3787 253.265 32.6597 247.836 32.6597C242.408 32.6597 238.007 37.3787 238.007 43.2C238.007 49.0212 242.408 53.7403 247.836 53.7403Z" fill="#FFB7B7"/>
<path d="M286.634 67.1402C284.808 63.3151 284.184 58.9717 282.779 54.9475C281.373 50.9232 278.82 46.9306 274.948 45.8215C272.752 45.1924 270.419 45.5764 268.163 45.2769C266.18 45.0135 264.045 43.9276 263.285 42.0387C263.438 40.1661 263.22 38.28 262.645 36.5041C261.23 32.1929 257.856 28.7895 253.922 27.0302C250.727 25.6009 247.047 25.1973 243.784 26.4384C240.521 27.6795 237.782 30.7128 237.196 34.3718C236.609 38.0309 238.49 42.1167 241.733 43.4164C244.061 44.3496 247.06 44.0389 248.58 46.1478C250.121 48.2842 249.017 51.3978 247.618 53.6432L247.713 53.7474C252.282 53.8049 257.221 52.8581 260.368 49.3054C260.71 48.9176 261.024 48.503 261.308 48.0651C261.405 48.2309 261.506 48.3926 261.614 48.5471C263.199 50.8038 265.68 52.0839 268.044 53.3311C270.407 54.5783 272.859 55.9781 274.278 58.3577C276.844 62.658 275.16 68.4498 276.627 73.3064C277.28 75.4684 278.539 77.3617 280.233 78.7279C281.926 80.0942 283.972 80.8669 286.09 80.9405C288.208 81.0142 290.296 80.3852 292.068 79.1395C293.84 77.8938 295.211 76.092 295.994 73.9799C292 74.3376 288.46 70.9654 286.634 67.1402Z" fill="#2F2E41"/>
<path d="M191.38 94.1122L191.796 83.2813L206.061 52.867C206.463 52.0024 207.119 51.3032 207.927 50.8769C208.422 50.612 208.962 50.4556 209.514 50.417C210.066 50.3783 210.62 50.4581 211.143 50.6517C211.749 50.8757 212.299 51.2468 212.749 51.7361C213.199 52.2253 213.538 52.8194 213.739 53.4721C213.825 53.7539 213.885 54.044 213.919 54.3383C214.021 55.2116 213.877 56.0975 213.505 56.8825L199.221 87.338L191.38 94.1122Z" fill="#4BFFA5"/>
<path d="M209.704 50.6211L194.219 83.6357L193.039 82.999L208.015 51.0678C208.54 50.7861 209.117 50.6335 209.704 50.6211Z" fill="#3F3D56"/>
<path d="M213.722 54.3653L198.828 86.1216L197.647 85.4848L213.1 52.5386C213.29 52.8495 213.441 53.1857 213.55 53.5388C213.632 53.8077 213.69 54.0845 213.722 54.3653Z" fill="#3F3D56"/>
<path d="M212.24 51.5315L196.584 84.9111L195.403 84.2744L211.079 50.8529C211.246 50.9142 211.409 50.9877 211.566 51.073C211.804 51.2017 212.03 51.3553 212.24 51.5315Z" fill="#3F3D56"/>
<path d="M193.171 92.2923L191.595 93.6529L191.728 90.0658C192.268 90.267 192.854 91.1402 193.171 92.2923Z" fill="#3F3D56"/>
<path d="M209.414 58.1958C209.468 58.4495 209.503 58.7073 209.519 58.9669L228.352 70.6181L232.93 67.7921L237.81 74.6432L230.159 80.4906C229.541 80.963 228.797 81.2077 228.038 81.1878C227.279 81.168 226.547 80.8848 225.951 80.3807L206.531 63.951C205.654 64.2989 204.7 64.3524 203.794 64.1045C202.889 63.8565 202.075 63.3187 201.462 62.5628C200.848 61.8068 200.464 60.8684 200.36 59.8725C200.256 58.8765 200.437 57.8702 200.879 56.9873C201.321 56.1045 202.004 55.3869 202.835 54.9301C203.667 54.4733 204.609 54.2989 205.536 54.43C206.462 54.5612 207.329 54.9918 208.022 55.6645C208.715 56.3372 209.2 57.2201 209.414 58.1958Z" fill="#FFB7B7"/>
<path d="M228.611 69.4534C228.667 69.1555 228.783 68.8743 228.951 68.6288C229.118 68.3834 229.333 68.1795 229.58 68.0312L238.223 62.8489C239.371 61.8985 240.824 61.4751 242.263 61.6716C243.702 61.8681 245.009 62.6685 245.899 63.8973C246.788 65.126 247.187 66.6828 247.008 68.2264C246.828 69.77 246.086 71.1743 244.942 72.1315L238.051 79.8049C237.855 80.0239 237.616 80.1948 237.353 80.3061C237.089 80.4174 236.806 80.4664 236.523 80.4497C236.239 80.4331 235.963 80.3512 235.712 80.2097C235.461 80.0682 235.242 79.8704 235.068 79.6297L228.982 71.1699C228.808 70.9292 228.685 70.6513 228.621 70.3551C228.557 70.0588 228.554 69.7513 228.611 69.4534Z" fill="#4BFFA5"/>
<path d="M294.742 217.036H143.546C143.441 217.036 143.34 216.991 143.266 216.911C143.191 216.832 143.149 216.723 143.149 216.61C143.149 216.498 143.191 216.389 143.266 216.31C143.34 216.23 143.441 216.185 143.546 216.185H294.742C294.847 216.185 294.948 216.23 295.022 216.31C295.097 216.389 295.138 216.498 295.138 216.61C295.138 216.723 295.097 216.832 295.022 216.911C294.948 216.991 294.847 217.036 294.742 217.036Z" fill="#CBCBCB"/>
</g>
<defs>
<clipPath id="clip0_6_395">
<rect width="295.955" height="217.034" fill="white" transform="translate(0.0385742 0.00231934)"/>
</clipPath>
</defs>
</svg>
