<svg width="530" height="553" viewBox="0 0 530 553" fill="none" xmlns="http://www.w3.org/2000/svg">
<path d="M267.799 553C376.24 553 464.15 537.451 464.15 518.27C464.15 499.09 376.24 483.541 267.799 483.541C159.357 483.541 71.448 499.09 71.448 518.27C71.448 537.451 159.357 553 267.799 553Z" fill="#3F3D56"/>
<path d="M104.162 191.149C104.162 140.553 178.349 99.5376 269.865 99.5376C361.38 99.5376 435.567 140.553 435.567 191.149" stroke="#3F3D56" stroke-width="2" stroke-miterlimit="10"/>
<path d="M321.967 134.811H187.159C160.496 89.874 160.496 44.937 187.159 0H321.967C284.685 44.937 284.685 89.874 321.967 134.811Z" fill="#E6E6E6"/>
<path d="M282.38 16.0488H206.417V25.6782H282.38V16.0488Z" fill="#4BFFA5"/>
<path d="M282.38 47.6118H181.809V50.8216H282.38V47.6118Z" fill="white"/>
<path d="M282.38 64.1958H181.809V67.4056H282.38V64.1958Z" fill="white"/>
<path d="M282.38 80.7795H181.809V83.9893H282.38V80.7795Z" fill="white"/>
<path d="M375.789 433.223C375.789 475.978 402.611 510.574 435.757 510.574L375.789 433.223Z" fill="#3F3D56"/>
<path d="M435.757 510.574C435.757 467.339 465.688 432.354 502.677 432.354L435.757 510.574Z" fill="#4BFFA5"/>
<path d="M397.517 437.099C397.517 477.711 414.62 510.574 435.757 510.574L397.517 437.099Z" fill="#4BFFA5"/>
<path d="M435.757 510.574C435.757 455.329 470.353 410.626 513.106 410.626L435.757 510.574Z" fill="#3F3D56"/>
<path d="M423.141 511.12C423.141 511.12 431.646 510.858 434.209 509.033C436.772 507.208 447.29 505.028 447.926 507.955C448.562 510.883 460.707 522.514 451.105 522.591C441.504 522.668 428.796 521.095 426.238 519.537C423.68 517.979 423.141 511.12 423.141 511.12Z" fill="#A8A8A8"/>
<path opacity="0.2" d="M451.277 521.572C441.675 521.649 428.967 520.076 426.409 518.518C424.461 517.331 423.685 513.073 423.425 511.108C423.245 511.116 423.141 511.119 423.141 511.119C423.141 511.119 423.68 517.979 426.238 519.537C428.796 521.095 441.504 522.668 451.105 522.591C453.877 522.568 454.834 521.582 454.782 520.122C454.397 521.004 453.34 521.555 451.277 521.572Z" fill="black"/>
<path d="M238.98 105.311C239.761 105.669 240.7 105.136 241.16 104.411C242.913 101.649 239.686 98.0889 240.385 94.8939C240.944 92.3342 243.853 90.815 244.448 88.2632C245.025 85.7838 243.245 82.989 244.448 80.7455C245.391 78.9879 247.746 78.5253 249.717 78.8333C251.688 79.1412 253.558 80.0075 255.549 80.1289C258.202 80.2906 260.73 79.1228 263.324 78.5441C265.918 77.9655 269.082 78.1921 270.608 80.3681C272.568 83.1622 270.58 87.0528 271.263 90.3966C271.804 93.0518 274.027 95.2503 274.075 97.9598C274.092 98.9228 271.56 98.147 271.695 99.1007C271.829 100.054 270.633 99.2147 271.589 99.1014C271.98 99.0057 272.33 98.7883 272.589 98.4805C272.847 98.1727 273.001 97.7905 273.029 97.3893C273.142 96.5949 274.635 96.3302 274.618 95.5279C274.578 93.6476 277.977 94.9154 278.537 93.12C279.824 88.9345 279.56 84.4253 277.793 80.4188C277.03 78.7084 275.992 77.0896 275.624 75.2534C275.125 72.7604 275.911 70.0841 275.087 67.6787C273.977 64.437 270.304 62.7845 266.894 62.4488C263.484 62.1132 260.019 62.714 256.629 62.2191C253.592 61.7757 250.651 60.4594 247.588 60.6501C243.912 60.879 240.713 63.2475 238.165 65.9069C235.617 68.5662 233.455 71.6249 230.561 73.9032C229.675 74.5128 228.858 75.2166 228.123 76.0021C226.649 77.7983 226.5 80.3572 226.91 82.6443C227.32 84.9315 228.212 87.1132 228.589 89.406C228.943 91.5608 228.834 93.7622 228.986 95.9405C229.138 98.1188 229.591 100.363 230.902 102.109C231.428 102.822 232.109 103.406 232.894 103.816C233.679 104.226 234.547 104.451 235.432 104.475C236.046 104.489 236.564 103.938 237.183 104.082C237.957 104.262 238.293 104.997 238.98 105.311Z" fill="#2F2E41"/>
<path d="M212.744 263.615L215.018 277.581L219.565 271.409L216.966 261.99L212.744 263.615Z" fill="#A0616A"/>
<path d="M215.667 158.053L212.087 167.487C212.087 167.487 208.522 215.543 208.522 219.116C208.522 222.689 211.12 268.486 212.094 270.435C212.094 270.435 216.317 264.264 221.838 265.238C227.36 266.213 225.086 248.998 225.086 248.998L230.283 206.449L229.309 185.012L215.667 158.053Z" fill="#575A89"/>
<path opacity="0.1" d="M215.667 158.053L212.087 167.487C212.087 167.487 208.522 215.543 208.522 219.116C208.522 222.689 211.12 268.486 212.094 270.435C212.094 270.435 216.317 264.264 221.838 265.238C227.36 266.213 225.086 248.998 225.086 248.998L230.283 206.449L229.309 185.012L215.667 158.053Z" fill="black"/>
<path d="M237.753 106.084C237.753 106.084 248.472 133.368 242.301 138.565C236.129 143.762 276.729 129.795 276.729 129.795L275.755 126.222C275.755 126.222 262.438 121.025 268.934 106.084C275.43 91.1433 237.753 106.084 237.753 106.084Z" fill="#A0616A"/>
<path opacity="0.1" d="M237.753 106.084C237.753 106.084 248.472 133.368 242.301 138.565C236.129 143.762 276.729 129.795 276.729 129.795L275.755 126.222C275.755 126.222 262.438 121.025 268.934 106.084C275.43 91.1433 237.753 106.084 237.753 106.084Z" fill="black"/>
<path d="M220.864 470.515C220.864 470.515 216.317 469.216 213.718 472.464C211.12 475.712 201.376 483.832 201.376 483.832C201.376 483.832 182.538 481.883 179.939 491.303C177.341 500.722 209.496 500.722 217.291 498.448C225.086 496.175 226.71 498.448 226.71 498.448C226.71 498.448 250.745 500.397 250.745 496.499C250.745 492.602 248.472 479.285 248.472 479.285L220.864 470.515Z" fill="#575A89"/>
<path d="M297.191 492.277L292.969 505.269C292.969 505.269 280.302 522.809 287.448 526.382C294.593 529.954 319.927 533.527 319.927 524.108V506.244C319.927 506.244 317.329 493.576 314.731 492.277C312.132 490.978 297.191 492.277 297.191 492.277Z" fill="#575A89"/>
<path d="M225.464 258.862C225.464 258.862 211.77 270.76 212.095 272.384C212.419 274.008 218.915 378.271 218.915 378.271L222.488 445.83C222.488 445.83 217.941 461.746 220.214 465.318C222.488 468.891 216.967 469.866 216.967 469.866C216.967 469.866 240.352 490.978 250.096 481.883L259.19 363.979L284.2 449.728C284.2 449.728 288.422 495.201 293.294 495.201C298.166 495.201 317.979 496.175 317.654 493.576C317.329 490.978 318.628 471.165 316.355 459.472C314.081 447.779 298.816 355.21 298.816 355.21C298.816 355.21 297.503 275.852 300.92 268.434C304.337 261.016 299.14 253.221 299.14 253.221L276.405 244.451L249.122 247.699L225.464 258.862Z" fill="#2F2E41"/>
<path d="M253.019 117.127C265.576 117.127 275.755 106.948 275.755 94.3911C275.755 81.8342 265.576 71.6548 253.019 71.6548C240.462 71.6548 230.283 81.8342 230.283 94.3911C230.283 106.948 240.462 117.127 253.019 117.127Z" fill="#A0616A"/>
<path d="M308.235 143.436C307.112 140.259 305.218 137.409 302.725 135.141C300.231 132.874 297.214 131.26 293.944 130.444C287.392 128.796 280.984 126.624 274.781 123.948C274.781 123.948 251.72 134.992 247.173 134.992C242.626 134.992 242.626 132.068 242.626 132.068C242.626 132.068 230.933 144.411 224.762 145.71C218.591 147.009 209.496 162.275 212.744 170.72C214.95 176.134 218.144 181.091 222.163 185.336C222.163 185.336 220.864 230.809 225.086 239.254C225.086 239.254 214.693 259.067 224.437 260.366C234.181 261.665 271.533 257.118 278.029 261.665C284.524 266.213 296.542 260.691 298.166 266.862C299.79 273.034 303.363 274.333 303.363 274.333C303.363 274.333 308.884 265.563 305.636 260.366C302.388 255.169 308.235 143.436 308.235 143.436Z" fill="#575A89"/>
<path d="M284.2 265.563L279.003 268.812C279.003 268.812 284.524 287.975 286.798 288.625C289.072 289.274 294.423 272.239 294.423 272.239L284.2 265.563Z" fill="#A0616A"/>
<path d="M235.083 103.038C235.863 103.396 236.802 102.862 237.263 102.137C239.015 99.376 235.789 95.8154 236.487 92.6205C237.047 90.0608 239.955 88.5416 240.55 85.9898C241.128 83.5103 239.347 80.7156 240.551 78.4721C241.494 76.7144 243.849 76.2519 245.819 76.5598C247.79 76.8677 249.661 77.734 251.651 77.8554C254.304 78.0172 256.833 76.8493 259.427 76.2707C262.021 75.6921 265.185 75.9186 266.711 78.0947C268.67 80.8887 266.683 84.7794 267.365 88.1231C267.907 90.7783 274.079 92.642 274.639 90.8465C275.927 86.6611 275.663 82.1519 273.895 78.1454C273.133 76.4349 272.095 74.8162 271.727 72.98C271.227 70.487 272.013 67.8107 271.19 65.4052C270.08 62.1636 266.407 60.511 262.997 60.1754C259.587 59.8398 256.122 60.4406 252.731 59.9457C249.694 59.5023 246.754 58.1859 243.69 58.3767C240.014 58.6055 236.815 60.974 234.267 63.6334C231.719 66.2928 229.558 69.3515 226.664 71.6297C225.778 72.2394 224.96 72.9431 224.226 73.7287C222.752 75.5249 222.602 78.0838 223.012 80.3709C223.422 82.658 224.315 84.8397 224.691 87.1326C225.045 89.2874 224.936 91.4888 225.089 93.6671C225.241 95.8454 225.693 98.0897 227.005 99.8353C227.53 100.548 228.211 101.132 228.996 101.542C229.781 101.952 230.65 102.178 231.535 102.202C232.148 102.216 232.666 101.665 233.285 101.809C234.059 101.988 234.396 102.723 235.083 103.038Z" fill="#2F2E41"/>
<path opacity="0.1" d="M295.405 149.121L305.961 143.437C305.961 143.437 331.62 204.5 325.449 221.39C319.278 238.28 295.568 273.034 295.568 273.034C295.568 273.034 276.729 269.136 278.678 265.238C280.627 261.341 293.294 236.331 294.268 233.083C295.243 229.835 301.739 208.722 298.815 206.449C295.892 204.175 290.208 151.394 290.208 151.394L295.405 149.121Z" fill="black"/>
<path d="M295.243 139.864L308.235 143.437C308.235 143.437 333.894 204.5 327.723 221.39C321.551 238.28 297.841 273.034 297.841 273.034C297.841 273.034 279.003 269.136 280.952 265.238C282.9 261.341 295.568 236.331 296.542 233.083C297.516 229.835 304.012 208.722 301.089 206.449C298.166 204.175 284.2 147.984 284.2 147.984L295.243 139.864Z" fill="#575A89"/>
<path d="M435.567 191.149C435.567 244.195 361.38 287.197 269.865 287.197C178.349 287.197 104.162 244.195 104.162 191.149" stroke="#3F3D56" stroke-width="2" stroke-miterlimit="10"/>
<path d="M405.427 288.561C368.388 308.537 320.059 320.626 267.192 320.626C216.504 320.626 169.987 309.513 133.593 290.99" stroke="#3F3D56" stroke-width="2" stroke-miterlimit="10"/>
<path d="M352.615 74.739C423.104 93.2665 473.306 134.021 477.974 182.02" stroke="#3F3D56" stroke-width="2" stroke-miterlimit="10"/>
<path d="M66.2271 150.821C78.104 128.992 99.8011 109.78 128.229 95.0215" stroke="#3F3D56" stroke-width="2" stroke-miterlimit="10"/>
<path d="M211.95 384.5H346.758C373.422 339.563 373.422 294.626 346.758 249.689H211.95C249.232 294.626 249.232 339.563 211.95 384.5Z" fill="#F2F2F2"/>
<path d="M332.519 275.367H256.556V284.997H332.519V275.367Z" fill="#4BFFA5"/>
<path d="M351.242 304.255H250.671V307.465H351.242V304.255Z" fill="white"/>
<path d="M351.242 320.839H250.671V324.049H351.242V320.839Z" fill="white"/>
<path d="M154.805 292.996H19.9973C-6.66577 248.059 -6.66577 203.122 19.9973 158.185H154.805C117.524 203.122 117.524 248.059 154.805 292.996Z" fill="#F2F2F2"/>
<path d="M110.939 174.234H34.9761V183.864H110.939V174.234Z" fill="#4BFFA5"/>
<path d="M118.963 200.982H18.3923V204.192H118.963V200.982Z" fill="white"/>
<path d="M118.963 217.566H18.3923V220.776H118.963V217.566Z" fill="white"/>
<path d="M118.963 234.15H18.3923V237.36H118.963V234.15Z" fill="white"/>
<path d="M118.963 250.734H18.3923V253.944H118.963V250.734Z" fill="white"/>
<path d="M375.195 230.898H510.003C536.666 185.961 536.666 141.024 510.003 96.0869H375.195C412.476 141.024 412.476 185.961 375.195 230.898Z" fill="#F2F2F2"/>
<path d="M494.158 109.461H418.195V119.09H494.158V109.461Z" fill="#4BFFA5"/>
<path d="M510.742 136.209H410.171V139.419H510.742V136.209Z" fill="white"/>
</svg>
