<svg width="328" height="240" viewBox="0 0 328 240" fill="none" xmlns="http://www.w3.org/2000/svg">
<g clip-path="url(#clip0_6_442)">
<path d="M20.1645 184.133C10.5382 179.828 2.182 169.528 1.12195 157.001C10.467 164.455 21.6553 167.605 32.7074 165.893C36.9677 165.214 41.6488 163.913 45.2945 166.707C47.563 168.446 48.9714 171.533 49.6174 174.722C50.2635 177.911 50.2343 181.241 50.2014 184.527L50.5011 185.26C40.4454 187.66 29.7908 188.439 20.1645 184.133Z" fill="#F0F0F0"/>
<path d="M1.33079 156.938C6.23635 165.441 13.1962 171.827 21.2217 175.19C22.9389 175.951 24.7431 176.375 26.5677 176.446C28.347 176.444 30.0934 175.857 31.6256 174.745C33.0711 173.743 34.4553 172.512 36.0737 171.96C36.9056 171.693 37.774 171.644 38.6221 171.818C39.4702 171.992 40.2788 172.385 40.9949 172.97C42.8099 174.371 44.1073 176.491 45.3174 178.618C46.661 180.979 48.0261 183.458 50.1236 184.892C50.3777 185.066 50.1436 185.54 49.8899 185.367C46.2407 182.873 44.8896 177.582 41.7835 174.366C40.3342 172.865 38.5082 171.892 36.5928 172.377C34.9179 172.801 33.4895 174.068 32.033 175.098C30.5513 176.21 28.8707 176.859 27.138 176.988C25.3163 177.032 23.5018 176.694 21.7723 175.989C17.8581 174.479 14.1613 172.221 10.8175 169.298C6.98617 165.989 3.64348 161.898 0.934047 157.203C0.76645 156.912 1.16429 156.649 1.33079 156.938V156.938Z" fill="white"/>
<path d="M18.5856 174.294C17.944 175.873 16.8668 177.12 15.5464 177.813C14.2259 178.505 12.7482 178.598 11.3772 178.075C11.1001 177.968 11.2224 177.433 11.4998 177.541C12.7758 178.031 14.1523 177.944 15.3808 177.296C16.6093 176.648 17.609 175.481 18.1994 174.007C18.328 173.686 18.7135 173.976 18.5856 174.294V174.294Z" fill="white"/>
<path d="M30.947 175.371C30.0431 171.938 28.1201 169.051 25.5614 167.284C25.3078 167.109 25.5418 166.634 25.7951 166.809C28.4549 168.654 30.4512 171.664 31.3854 175.239C31.4743 175.579 31.0354 175.71 30.947 175.371Z" fill="white"/>
<path d="M7.49653 165.605C7.84833 165.057 8.08405 164.411 8.18253 163.724C8.28101 163.037 8.23915 162.331 8.06073 161.668C7.9684 161.329 8.40739 161.199 8.49912 161.536C8.69347 162.268 8.73891 163.049 8.63148 163.808C8.52404 164.567 8.267 165.283 7.8828 165.892C7.8505 165.953 7.80047 165.997 7.7429 166.014C7.68532 166.032 7.62451 166.021 7.57282 165.986C7.52183 165.947 7.48522 165.886 7.47093 165.814C7.45665 165.743 7.46584 165.668 7.49653 165.605V165.605Z" fill="white"/>
<path d="M25.4174 126.569C25.48 126.778 25.5425 126.988 25.6088 127.199C26.4616 130.015 27.499 132.741 28.7108 135.349C28.8019 135.553 28.8967 135.758 28.9924 135.958C31.9664 142.205 35.858 147.719 40.4692 152.219C42.3054 154.008 44.2496 155.623 46.2851 157.049C49.0962 159.018 52.2716 160.878 54.3289 163.789C54.5463 164.09 54.7484 164.407 54.9339 164.738L51.2052 184.754C51.1782 184.794 51.1548 184.836 51.1277 184.876L51.0085 185.684C50.8994 185.619 50.7873 185.549 50.6781 185.485C50.6147 185.448 50.5521 185.406 50.4886 185.369C50.4466 185.343 50.4046 185.316 50.3654 185.296C50.3514 185.287 50.3375 185.278 50.3271 185.271C50.288 185.25 50.2534 185.226 50.218 185.206C49.5906 184.818 48.9643 184.424 48.3392 184.023C48.3355 184.022 48.3355 184.022 48.3326 184.017C43.5454 181.022 39.0641 177.34 34.9825 173.048C34.8621 172.917 34.738 172.787 34.6193 172.647C32.8239 170.686 31.1619 168.548 29.6498 166.254C28.8251 164.995 28.0528 163.685 27.3359 162.329C25.4888 158.823 24.1019 154.981 23.2259 150.944C21.4805 142.897 21.8477 134.253 25.16 127.111C25.2449 126.929 25.3289 126.75 25.4174 126.569Z" fill="#F0F0F0"/>
<path d="M25.6156 126.672C25.3688 137.092 27.7988 147.344 32.5602 155.969C33.5584 157.849 34.7913 159.523 36.2135 160.93C37.635 162.246 39.3171 163.07 41.085 163.316C42.7297 163.586 44.4375 163.628 46.0001 164.386C46.7953 164.788 47.5123 165.392 48.1043 166.159C48.6962 166.926 49.1496 167.838 49.4348 168.835C50.1979 171.297 50.1959 173.95 50.1206 176.544C50.0371 179.424 49.9132 182.414 50.8858 185.112C51.0037 185.438 50.5843 185.644 50.4667 185.318C48.7744 180.625 50.2863 175.4 49.3812 170.533C48.9589 168.262 47.9773 166.133 46.2105 165.102C44.6655 164.201 42.9045 164.156 41.2373 163.9C39.5098 163.691 37.8501 162.965 36.4034 161.785C34.9275 160.471 33.6442 158.858 32.6084 157.015C30.2227 152.912 28.3766 148.372 27.1378 143.564C25.6991 138.085 25.0332 132.344 25.169 126.59C25.1775 126.234 25.624 126.318 25.6156 126.672L25.6156 126.672Z" fill="white"/>
<path d="M30.8942 153.303C29.6087 154.089 28.1379 154.287 26.7444 153.863C25.351 153.438 24.1256 152.418 23.2872 150.986C23.1184 150.695 23.4777 150.359 23.6468 150.65C24.4255 151.986 25.567 152.935 26.8653 153.327C28.1635 153.719 29.5329 153.528 30.7264 152.788C30.986 152.627 31.1522 153.143 30.8942 153.303Z" fill="white"/>
<path d="M40.2365 163.314C41.1957 159.904 41.0743 156.174 39.8966 152.87C39.7797 152.542 40.199 152.336 40.3157 152.663C41.5361 156.105 41.656 159.987 40.6515 163.532C40.5556 163.87 40.1411 163.65 40.2365 163.314Z" fill="white"/>
<path d="M26.295 138.156C26.8439 137.979 27.3485 137.638 27.7636 137.162C28.1786 136.687 28.4911 136.092 28.6729 135.431C28.7653 135.092 29.1797 135.312 29.0879 135.649C28.8843 136.378 28.5385 137.035 28.0809 137.562C27.6233 138.088 27.0677 138.469 26.4627 138.671C26.407 138.696 26.3456 138.694 26.2911 138.665C26.2366 138.637 26.193 138.584 26.1693 138.517C26.1473 138.448 26.1482 138.372 26.1718 138.305C26.1953 138.237 26.2396 138.184 26.295 138.156H26.295Z" fill="white"/>
<path d="M311.526 183.72C320.648 177.992 327.912 166.507 327.711 153.915C319.182 162.725 308.394 167.542 297.254 167.514C292.958 167.483 288.183 166.9 284.844 170.224C282.767 172.292 281.678 175.569 281.355 178.831C281.033 182.094 281.395 185.394 281.756 188.65L281.532 189.423C291.751 190.285 302.403 189.448 311.526 183.72Z" fill="#F0F0F0"/>
<path d="M327.498 153.884C323.479 163.064 317.211 170.454 309.582 175.004C307.954 176.019 306.206 176.713 304.402 177.059C302.636 177.326 300.844 177.007 299.213 176.135C297.678 175.359 296.181 174.347 294.52 174.043C293.668 173.904 292.801 173.987 291.977 174.288C291.152 174.589 290.389 175.101 289.737 175.79C288.076 177.454 287 179.754 286.012 182.048C284.915 184.594 283.808 187.261 281.869 189.001C281.635 189.211 281.914 189.647 282.149 189.437C285.521 186.41 286.333 180.955 289.094 177.294C290.382 175.585 292.097 174.344 294.046 174.535C295.751 174.703 297.295 175.745 298.844 176.547C300.425 177.426 302.158 177.816 303.891 177.683C305.703 177.451 307.47 176.841 309.116 175.88C312.849 173.79 316.292 170.99 319.319 167.585C322.79 163.722 325.698 159.157 327.918 154.088C328.055 153.774 327.634 153.573 327.498 153.884Z" fill="white"/>
<path d="M312.109 173.716C312.903 175.186 314.097 176.261 315.477 176.749C316.857 177.237 318.332 177.106 319.641 176.379C319.905 176.231 319.73 175.719 319.465 175.868C318.248 176.547 316.874 176.669 315.59 176.211C314.306 175.754 313.197 174.747 312.464 173.373C312.304 173.074 311.95 173.42 312.109 173.716Z" fill="white"/>
<path d="M299.949 176.654C300.503 173.11 302.123 169.954 304.485 167.814C304.719 167.602 304.44 167.166 304.206 167.378C301.751 169.61 300.07 172.9 299.501 176.588C299.446 176.94 299.895 177.004 299.949 176.654H299.949Z" fill="white"/>
<path d="M322.245 163.417C321.841 162.927 321.543 162.321 321.376 161.654C321.21 160.987 321.181 160.28 321.292 159.596C321.349 159.245 320.901 159.182 320.843 159.531C320.724 160.287 320.757 161.068 320.939 161.806C321.122 162.543 321.448 163.214 321.89 163.761C321.929 163.816 321.983 163.852 322.041 163.861C322.1 163.869 322.16 163.85 322.207 163.807C322.254 163.761 322.284 163.694 322.291 163.622C322.298 163.549 322.282 163.475 322.245 163.417H322.245Z" fill="white"/>
<path d="M300.558 127.386C300.517 127.603 300.475 127.821 300.431 128.04C299.866 130.964 299.109 133.825 298.167 136.598C298.097 136.813 298.023 137.031 297.948 137.244C295.621 143.893 292.311 149.953 288.184 155.117C286.541 157.17 284.773 159.066 282.895 160.789C280.302 163.168 277.337 165.494 275.586 168.693C275.401 169.024 275.232 169.37 275.081 169.726L280.782 189.027C280.813 189.063 280.84 189.1 280.871 189.137L281.07 189.92C281.172 189.839 281.276 189.753 281.378 189.673C281.438 189.626 281.496 189.576 281.555 189.529C281.594 189.497 281.633 189.464 281.67 189.438C281.683 189.427 281.696 189.416 281.705 189.407C281.742 189.381 281.774 189.351 281.807 189.327C282.391 188.847 282.973 188.361 283.553 187.869C283.557 187.867 283.557 187.867 283.559 187.861C288.011 184.166 292.09 179.835 295.712 174.958C295.818 174.81 295.928 174.662 296.032 174.506C297.618 172.288 299.053 169.915 300.325 167.41C301.017 166.035 301.653 164.618 302.229 163.165C303.711 159.406 304.704 155.383 305.169 151.245C306.097 142.995 304.869 134.472 300.867 127.885C300.765 127.717 300.664 127.552 300.558 127.386Z" fill="#F0F0F0"/>
<path d="M300.371 127.518C301.658 137.822 300.271 148.363 296.408 157.643C295.605 159.659 294.549 161.507 293.278 163.118C291.999 164.639 290.412 165.711 288.682 166.222C287.077 166.739 285.387 167.039 283.912 168.026C283.163 168.546 282.511 169.254 282.001 170.104C281.49 170.955 281.131 171.928 280.948 172.961C280.437 175.52 280.704 178.152 281.038 180.715C281.409 183.561 281.83 186.51 281.135 189.334C281.051 189.676 281.487 189.817 281.571 189.475C282.782 184.562 280.759 179.605 281.171 174.638C281.363 172.32 282.124 170.06 283.774 168.77C285.218 167.642 286.961 167.33 288.59 166.824C290.283 166.356 291.858 165.385 293.176 163.995C294.509 162.469 295.621 160.674 296.465 158.688C298.422 154.255 299.801 149.471 300.549 144.512C301.429 138.857 301.516 133.06 300.806 127.369C300.762 127.017 300.327 127.168 300.371 127.518Z" fill="white"/>
<path d="M297.795 154.745C299.149 155.33 300.629 155.305 301.969 154.673C303.31 154.041 304.424 152.844 305.113 151.295C305.251 150.982 304.861 150.702 304.722 151.016C304.083 152.46 303.045 153.575 301.796 154.16C300.547 154.746 299.168 154.763 297.91 154.208C297.636 154.088 297.523 154.625 297.795 154.745Z" fill="white"/>
<path d="M289.525 166.092C288.232 162.853 287.979 159.133 288.818 155.675C288.901 155.333 288.464 155.192 288.381 155.534C287.514 159.134 287.783 163.004 289.135 166.372C289.264 166.692 289.653 166.411 289.525 166.092Z" fill="white"/>
<path d="M300.845 139.018C300.283 138.925 299.748 138.663 299.288 138.253C298.829 137.844 298.459 137.301 298.213 136.672C298.087 136.35 297.698 136.632 297.823 136.952C298.098 137.645 298.506 138.244 299.013 138.698C299.52 139.151 300.11 139.446 300.73 139.554C300.788 139.571 300.849 139.559 300.9 139.523C300.951 139.486 300.989 139.427 301.006 139.357C301.021 139.286 301.012 139.21 300.982 139.147C300.952 139.083 300.903 139.037 300.845 139.018V139.018Z" fill="white"/>
<path d="M285.779 8.38379H221.505V13.4677C221.504 13.728 221.577 13.9806 221.711 14.1822C221.581 18.1559 221.505 23.2287 221.505 28.7413V164.659C221.505 177.399 221.921 187.765 222.43 187.765H284.854C285.363 187.765 285.779 177.399 285.779 164.659V28.7413C285.779 23.2287 285.703 18.1559 285.573 14.1822C285.707 13.9806 285.78 13.728 285.779 13.4677L285.779 8.38379Z" fill="white"/>
<path d="M284.854 188.314H222.43C221.944 188.314 221.622 188.314 221.33 181.016C221.155 176.637 221.058 170.828 221.058 164.659V28.7413C221.058 23.4135 221.131 18.2352 221.264 14.1601C221.347 11.7134 221.442 9.75355 221.547 8.33418C221.752 5.55555 221.948 5.08618 222.43 5.08618H284.854C285.336 5.08618 285.531 5.55555 285.737 8.33418C285.842 9.75892 285.937 11.7188 286.02 14.159L286.02 14.1601C286.153 18.2309 286.226 23.4092 286.226 28.7413V164.659C286.226 170.828 286.129 176.637 285.954 181.016C285.661 188.314 285.34 188.314 284.854 188.314ZM222.684 187.215H284.6C284.923 185.713 285.332 177.558 285.332 164.659V28.7413C285.332 23.4237 285.259 18.2615 285.127 14.2052H285.126C285.044 11.7824 284.95 9.8405 284.846 8.43347C284.806 7.67771 284.723 6.92643 284.595 6.1854H222.688C222.561 6.92644 222.477 7.67771 222.437 8.43347C222.334 9.83513 222.24 11.777 222.157 14.2052C222.025 18.265 221.952 23.4277 221.952 28.7413V164.659C221.952 177.558 222.361 185.713 222.684 187.215Z" fill="#E4E4E4"/>
<path d="M284.853 5.63574H222.43C222.185 5.63632 221.95 5.75637 221.776 5.96959C221.603 6.18282 221.505 6.47186 221.505 6.77343V13.4677C221.504 13.728 221.577 13.9806 221.711 14.1822C221.797 14.3139 221.907 14.4203 222.032 14.4935C222.156 14.5667 222.292 14.6049 222.43 14.6053H284.853C284.991 14.6049 285.128 14.5666 285.252 14.4934C285.376 14.4202 285.486 14.3139 285.573 14.1822C285.707 13.9806 285.78 13.7279 285.779 13.4677V6.77343C285.778 6.47189 285.681 6.18285 285.507 5.96962C285.334 5.75639 285.099 5.63633 284.853 5.63574Z" fill="#CACACA"/>
<path d="M226.878 11.4095C227.603 11.4095 228.192 10.6862 228.192 9.79386C228.192 8.90157 227.603 8.17822 226.878 8.17822C226.152 8.17822 225.564 8.90157 225.564 9.79386C225.564 10.6862 226.152 11.4095 226.878 11.4095Z" fill="white"/>
<path d="M231.865 11.4095C232.591 11.4095 233.179 10.6862 233.179 9.79386C233.179 8.90157 232.591 8.17822 231.865 8.17822C231.14 8.17822 230.551 8.90157 230.551 9.79386C230.551 10.6862 231.14 11.4095 231.865 11.4095Z" fill="white"/>
<path d="M236.853 11.4095C237.579 11.4095 238.167 10.6862 238.167 9.79386C238.167 8.90157 237.579 8.17822 236.853 8.17822C236.127 8.17822 235.539 8.90157 235.539 9.79386C235.539 10.6862 236.127 11.4095 236.853 11.4095Z" fill="white"/>
<path d="M279.968 7.63635H274.224C274.111 7.63727 274.004 7.69259 273.924 7.79031C273.845 7.88803 273.8 8.0203 273.799 8.15848C273.797 8.23716 273.813 8.31498 273.844 8.38382C273.878 8.47233 273.932 8.54718 273.999 8.5997C274.066 8.65222 274.144 8.68028 274.224 8.68061H279.968C280.048 8.6811 280.127 8.65344 280.195 8.60089C280.263 8.54834 280.318 8.47305 280.352 8.38382C280.38 8.31356 280.393 8.2364 280.392 8.15848C280.392 8.08989 280.381 8.02198 280.36 7.95861C280.339 7.89524 280.308 7.83766 280.268 7.78917C280.229 7.74068 280.182 7.70222 280.13 7.676C280.079 7.64978 280.023 7.63631 279.968 7.63635Z" fill="white"/>
<path d="M279.968 9.59851H274.224C274.111 9.59851 274.003 9.65352 273.923 9.75144C273.844 9.84935 273.799 9.98216 273.799 10.1206C273.799 10.2591 273.844 10.3919 273.923 10.4898C274.003 10.5878 274.111 10.6428 274.224 10.6428H279.968C280.08 10.6428 280.188 10.5878 280.268 10.4898C280.348 10.3919 280.392 10.2591 280.392 10.1206C280.392 9.98216 280.348 9.84935 280.268 9.75144C280.188 9.65352 280.08 9.59851 279.968 9.59851Z" fill="white"/>
<path d="M279.968 11.5605H274.224C274.111 11.5605 274.003 11.6156 273.923 11.7135C273.844 11.8114 273.799 11.9442 273.799 12.0827C273.799 12.2211 273.844 12.354 273.923 12.4519C274.003 12.5498 274.111 12.6048 274.224 12.6048H279.968C280.08 12.6048 280.188 12.5498 280.268 12.4519C280.348 12.354 280.392 12.2211 280.392 12.0827C280.392 11.9442 280.348 11.8114 280.268 11.7135C280.188 11.6156 280.08 11.5605 279.968 11.5605Z" fill="white"/>
<path d="M259.853 29.2799H248.034C247.442 29.2802 246.873 29.5698 246.454 30.0851C246.035 30.6004 245.8 31.2992 245.799 32.0279V44.614C245.8 45.3424 246.036 46.0407 246.455 46.5558C246.874 47.0709 247.442 47.3608 248.034 47.362H259.853C260.445 47.3599 261.013 47.0697 261.431 46.5548C261.85 46.0399 262.086 45.3421 262.088 44.614V32.0279C262.087 31.2995 261.851 30.6012 261.432 30.0861C261.013 29.571 260.445 29.2811 259.853 29.2799Z" fill="#4BFFA5"/>
<path d="M274.537 55.5841H233.346C233.077 55.5841 232.819 55.7155 232.629 55.9495C232.438 56.1835 232.331 56.5008 232.331 56.8317C232.331 57.1626 232.438 57.4799 232.629 57.7139C232.819 57.9479 233.077 58.0793 233.346 58.0793H274.537C274.806 58.0793 275.064 57.9479 275.254 57.7139C275.445 57.4799 275.552 57.1626 275.552 56.8317C275.552 56.5008 275.445 56.1835 275.254 55.9495C275.064 55.7155 274.806 55.5841 274.537 55.5841Z" fill="#E4E4E4"/>
<path d="M248.991 61.432H233.346C233.077 61.432 232.819 61.5635 232.629 61.7974C232.438 62.0314 232.331 62.3487 232.331 62.6796C232.331 63.0105 232.438 63.3279 232.629 63.5618C232.819 63.7958 233.077 63.9272 233.346 63.9272H248.991C249.26 63.9272 249.518 63.7958 249.708 63.5618C249.899 63.3279 250.006 63.0105 250.006 62.6796C250.006 62.3487 249.899 62.0314 249.708 61.7974C249.518 61.5635 249.26 61.432 248.991 61.432Z" fill="#E4E4E4"/>
<path d="M259.853 83.691H248.034C247.442 83.6913 246.873 83.981 246.454 84.4962C246.035 85.0115 245.8 85.7103 245.799 86.4391V99.0251C245.8 99.7536 246.036 100.452 246.455 100.967C246.874 101.482 247.442 101.772 248.034 101.773H259.853C260.445 101.771 261.013 101.481 261.431 100.966C261.85 100.451 262.086 99.7533 262.088 99.0251V86.4391C262.087 85.7106 261.851 85.0124 261.432 84.4973C261.013 83.9822 260.445 83.6922 259.853 83.691Z" fill="#4BFFA5"/>
<path d="M274.537 109.995H233.346C233.077 109.995 232.819 110.127 232.629 110.361C232.438 110.595 232.331 110.912 232.331 111.243C232.331 111.574 232.438 111.891 232.629 112.125C232.819 112.359 233.077 112.49 233.346 112.49H274.537C274.806 112.49 275.064 112.359 275.254 112.125C275.445 111.891 275.552 111.574 275.552 111.243C275.552 110.912 275.445 110.595 275.254 110.361C275.064 110.127 274.806 109.995 274.537 109.995Z" fill="#E4E4E4"/>
<path d="M248.991 115.843H233.346C233.077 115.843 232.819 115.975 232.629 116.209C232.438 116.443 232.331 116.76 232.331 117.091C232.331 117.422 232.438 117.739 232.629 117.973C232.819 118.207 233.077 118.338 233.346 118.338H248.991C249.26 118.338 249.518 118.207 249.708 117.973C249.899 117.739 250.006 117.422 250.006 117.091C250.006 116.76 249.899 116.443 249.708 116.209C249.518 115.975 249.26 115.843 248.991 115.843Z" fill="#E4E4E4"/>
<path d="M259.853 138.102H248.034C247.442 138.103 246.873 138.392 246.454 138.908C246.035 139.423 245.8 140.122 245.799 140.85V153.436C245.8 154.165 246.036 154.863 246.455 155.378C246.874 155.893 247.442 156.183 248.034 156.184H259.853C260.445 156.182 261.013 155.892 261.431 155.377C261.85 154.862 262.086 154.165 262.088 153.436V140.85C262.087 140.122 261.851 139.424 261.432 138.909C261.013 138.393 260.445 138.103 259.853 138.102Z" fill="#4BFFA5"/>
<path d="M274.537 164.406H233.346C233.077 164.406 232.819 164.538 232.629 164.772C232.438 165.006 232.331 165.323 232.331 165.654C232.331 165.985 232.438 166.302 232.629 166.536C232.819 166.77 233.077 166.902 233.346 166.902H274.537C274.806 166.902 275.064 166.77 275.254 166.536C275.445 166.302 275.552 165.985 275.552 165.654C275.552 165.323 275.445 165.006 275.254 164.772C275.064 164.538 274.806 164.406 274.537 164.406Z" fill="#E4E4E4"/>
<path d="M248.991 170.254H233.346C233.077 170.254 232.819 170.386 232.629 170.62C232.438 170.854 232.331 171.171 232.331 171.502C232.331 171.833 232.438 172.15 232.629 172.384C232.819 172.618 233.077 172.75 233.346 172.75H248.991C249.26 172.75 249.518 172.618 249.708 172.384C249.899 172.15 250.006 171.833 250.006 171.502C250.006 171.171 249.899 170.854 249.708 170.62C249.518 170.386 249.26 170.254 248.991 170.254Z" fill="#E4E4E4"/>
<path d="M203.978 1.82702C203.978 1.52548 203.88 1.23645 203.707 1.02322C203.533 0.809984 203.298 0.689924 203.053 0.689331H37.82C37.5747 0.689913 37.3396 0.809956 37.1662 1.02318C36.9927 1.23641 36.895 1.52545 36.8945 1.82702V8.52124C36.8938 8.79994 36.9784 9.06878 37.1316 9.27421C36.984 13.8195 36.8945 19.8102 36.8945 26.3725V177.465C36.8945 191.634 37.3103 203.154 37.82 203.154H203.053C203.562 203.154 203.978 191.634 203.978 177.465V26.3725C203.978 19.8102 203.889 13.8195 203.741 9.27421C203.894 9.06875 203.979 8.79991 203.978 8.52124V1.82702Z" fill="white"/>
<path d="M203.053 203.703H37.8199C37.3148 203.703 37.0099 203.703 36.7195 195.647C36.5441 190.78 36.4475 184.323 36.4475 177.465V26.3725C36.4475 20.048 36.5318 13.968 36.6849 9.25232C36.9788 0.139778 37.3134 0.139771 37.8199 0.139771H203.053C203.559 0.139771 203.894 0.141388 204.188 9.25232C204.341 13.9637 204.425 20.0437 204.425 26.3725V177.465C204.425 184.324 204.328 190.781 204.153 195.647C203.863 203.703 203.558 203.703 203.053 203.703ZM38.0809 202.604H202.792C203.158 200.881 203.531 191.205 203.531 177.465V26.3725C203.531 20.058 203.447 13.9932 203.295 9.29632V9.29606C203.108 3.5233 202.891 1.76659 202.787 1.23899H38.0857C37.9818 1.76661 37.7644 3.5233 37.5782 9.29606C37.4255 13.9978 37.3415 20.0623 37.3415 26.3725V177.465C37.3415 191.205 37.715 200.881 38.0809 202.604Z" fill="#E4E4E4"/>
<path d="M203.053 0.689331H37.82C37.5747 0.689913 37.3396 0.809956 37.1662 1.02318C36.9927 1.23641 36.895 1.52545 36.8945 1.82702V8.52124C36.8938 8.79994 36.9784 9.06878 37.1316 9.27421C37.2175 9.39483 37.3233 9.49154 37.442 9.55788C37.5607 9.62423 37.6896 9.65868 37.8199 9.65893H203.053C203.183 9.65868 203.312 9.62423 203.431 9.55788C203.549 9.49154 203.655 9.39483 203.741 9.27421C203.894 9.06875 203.979 8.79991 203.978 8.52124V1.82702C203.978 1.52549 203.88 1.23646 203.706 1.02323C203.533 0.810002 203.298 0.689935 203.053 0.689331Z" fill="#CACACA"/>
<path d="M42.2674 6.46296C42.9931 6.46296 43.5814 5.73962 43.5814 4.84733C43.5814 3.95503 42.9931 3.23169 42.2674 3.23169C41.5417 3.23169 40.9534 3.95503 40.9534 4.84733C40.9534 5.73962 41.5417 6.46296 42.2674 6.46296Z" fill="white"/>
<path d="M47.2549 6.46296C47.9806 6.46296 48.5689 5.73962 48.5689 4.84733C48.5689 3.95503 47.9806 3.23169 47.2549 3.23169C46.5292 3.23169 45.9409 3.95503 45.9409 4.84733C45.9409 5.73962 46.5292 6.46296 47.2549 6.46296Z" fill="white"/>
<path d="M52.2427 6.46296C52.9684 6.46296 53.5567 5.73962 53.5567 4.84733C53.5567 3.95503 52.9684 3.23169 52.2427 3.23169C51.517 3.23169 50.9287 3.95503 50.9287 4.84733C50.9287 5.73962 51.517 6.46296 52.2427 6.46296Z" fill="white"/>
<path d="M198.167 2.68994H192.423C192.31 2.68994 192.202 2.74495 192.123 2.84287C192.043 2.94078 191.998 3.07359 191.998 3.21207C191.998 3.35054 192.043 3.48335 192.123 3.58127C192.202 3.67919 192.31 3.7342 192.423 3.7342H198.167C198.28 3.7342 198.388 3.67919 198.467 3.58127C198.547 3.48335 198.592 3.35054 198.592 3.21207C198.592 3.07359 198.547 2.94078 198.467 2.84287C198.388 2.74495 198.28 2.68994 198.167 2.68994Z" fill="white"/>
<path d="M198.167 4.65198H192.423C192.31 4.65198 192.202 4.70698 192.123 4.8049C192.043 4.90282 191.998 5.03563 191.998 5.1741C191.998 5.31258 192.043 5.44539 192.123 5.5433C192.202 5.64122 192.31 5.69623 192.423 5.69623H198.167C198.28 5.69623 198.388 5.64122 198.467 5.5433C198.547 5.44539 198.592 5.31258 198.592 5.1741C198.592 5.03563 198.547 4.90282 198.467 4.8049C198.388 4.70698 198.28 4.65198 198.167 4.65198Z" fill="white"/>
<path d="M198.167 6.61414H192.423C192.31 6.61414 192.202 6.66915 192.123 6.76707C192.043 6.86499 191.998 6.99778 191.998 7.13626C191.998 7.27474 192.043 7.40754 192.123 7.50546C192.202 7.60338 192.31 7.6584 192.423 7.6584H198.167C198.28 7.6584 198.388 7.60338 198.467 7.50546C198.547 7.40754 198.592 7.27474 198.592 7.13626C198.592 6.99778 198.547 6.86499 198.467 6.76707C198.388 6.66915 198.28 6.61414 198.167 6.61414Z" fill="white"/>
<path d="M91.2273 34.2264H71.8901C70.9207 34.2279 69.9914 34.702 69.3059 35.5449C68.6205 36.3877 68.2349 37.5304 68.2338 38.7222V59.316C68.2349 60.5079 68.6205 61.6506 69.3059 62.4934C69.9914 63.3362 70.9207 63.8104 71.8901 63.8118H91.2273C92.1967 63.8104 93.126 63.3362 93.8115 62.4934C94.4969 61.6506 94.8825 60.5079 94.8836 59.316V38.7222C94.8825 37.5303 94.4969 36.3877 93.8115 35.5449C93.126 34.702 92.1967 34.2279 91.2273 34.2264Z" fill="#4BFFA5"/>
<path d="M170.985 42.1902H103.587C103.146 42.1902 102.724 42.4053 102.413 42.7882C102.101 43.1711 101.926 43.6905 101.926 44.232C101.926 44.7735 102.101 45.2928 102.413 45.6757C102.724 46.0586 103.146 46.2738 103.587 46.2738H170.985C171.425 46.2738 171.848 46.0586 172.159 45.6757C172.471 45.2928 172.646 44.7735 172.646 44.232C172.646 43.6905 172.471 43.1711 172.159 42.7882C171.848 42.4053 171.425 42.1902 170.985 42.1902Z" fill="#E4E4E4"/>
<path d="M129.186 51.7588H103.587C103.146 51.7588 102.724 51.9739 102.413 52.3568C102.101 52.7397 101.926 53.2591 101.926 53.8006C101.926 54.3421 102.101 54.8614 102.413 55.2443C102.724 55.6272 103.146 55.8424 103.587 55.8424H129.186C129.627 55.8424 130.049 55.6272 130.361 55.2443C130.672 54.8614 130.847 54.3421 130.847 53.8006C130.847 53.2591 130.672 52.7397 130.361 52.3568C130.049 51.9739 129.627 51.7588 129.186 51.7588Z" fill="#E4E4E4"/>
<path d="M91.2273 89.1871H71.8901C70.9207 89.1886 69.9914 89.6627 69.3059 90.5056C68.6205 91.3484 68.2349 92.491 68.2338 93.6829V114.277C68.2349 115.469 68.6205 116.611 69.3059 117.454C69.9914 118.297 70.9207 118.771 71.8901 118.773H91.2273C92.1967 118.771 93.126 118.297 93.8115 117.454C94.4969 116.611 94.8825 115.469 94.8836 114.277V93.6829C94.8825 92.491 94.4969 91.3484 93.8115 90.5056C93.126 89.6627 92.1967 89.1886 91.2273 89.1871Z" fill="#4BFFA5"/>
<path d="M170.985 97.151H103.587C103.146 97.151 102.724 97.3661 102.413 97.749C102.101 98.1319 101.926 98.6513 101.926 99.1928C101.926 99.7343 102.101 100.254 102.413 100.637C102.724 101.019 103.146 101.235 103.587 101.235H170.985C171.425 101.235 171.848 101.019 172.159 100.637C172.471 100.254 172.646 99.7343 172.646 99.1928C172.646 98.6513 172.471 98.1319 172.159 97.749C171.848 97.3661 171.425 97.151 170.985 97.151Z" fill="#E4E4E4"/>
<path d="M129.186 106.72H103.587C103.146 106.72 102.724 106.935 102.413 107.318C102.101 107.701 101.926 108.22 101.926 108.761C101.926 109.303 102.101 109.822 102.413 110.205C102.724 110.588 103.146 110.803 103.587 110.803H129.186C129.627 110.803 130.049 110.588 130.361 110.205C130.672 109.822 130.847 109.303 130.847 108.761C130.847 108.22 130.672 107.701 130.361 107.318C130.049 106.935 129.627 106.72 129.186 106.72Z" fill="#E4E4E4"/>
<path d="M91.2273 144.148H71.8901C70.9207 144.149 69.9914 144.624 69.3059 145.466C68.6205 146.309 68.2349 147.452 68.2338 148.644V169.238C68.2349 170.429 68.6205 171.572 69.3059 172.415C69.9914 173.258 70.9207 173.732 71.8901 173.733H91.2273C92.1967 173.732 93.126 173.258 93.8115 172.415C94.4969 171.572 94.8825 170.429 94.8836 169.238V148.644C94.8825 147.452 94.4969 146.309 93.8115 145.466C93.126 144.624 92.1967 144.149 91.2273 144.148Z" fill="#4BFFA5"/>
<path d="M170.985 152.112H103.587C103.146 152.112 102.724 152.327 102.413 152.71C102.101 153.093 101.926 153.612 101.926 154.154C101.926 154.695 102.101 155.214 102.413 155.597C102.724 155.98 103.146 156.195 103.587 156.195H170.985C171.425 156.195 171.848 155.98 172.159 155.597C172.471 155.214 172.646 154.695 172.646 154.154C172.646 153.612 172.471 153.093 172.159 152.71C171.848 152.327 171.425 152.112 170.985 152.112Z" fill="#E4E4E4"/>
<path d="M129.186 161.68H103.587C103.146 161.68 102.724 161.895 102.413 162.278C102.101 162.661 101.926 163.181 101.926 163.722C101.926 164.264 102.101 164.783 102.413 165.166C102.724 165.549 103.146 165.764 103.587 165.764H129.186C129.627 165.764 130.049 165.549 130.361 165.166C130.672 164.783 130.847 164.264 130.847 163.722C130.847 163.181 130.672 162.661 130.361 162.278C130.049 161.895 129.627 161.68 129.186 161.68Z" fill="#E4E4E4"/>
<path d="M232.556 239.428H121.857C121.347 239.428 120.932 229.782 120.932 217.925V91.4419C120.932 79.5848 121.347 69.9395 121.857 69.9395H232.556C233.066 69.9395 233.481 79.5848 233.481 91.4419V217.925C233.482 229.782 233.066 239.428 232.556 239.428Z" fill="white"/>
<path d="M232.556 239.977H121.857C121.389 239.977 121.051 239.977 120.757 233.152C120.581 229.077 120.485 223.669 120.485 217.925V91.442C120.485 85.6982 120.581 80.2904 120.757 76.2153C121.051 69.3898 121.389 69.3898 121.857 69.3898H232.556C233.024 69.3898 233.363 69.3898 233.656 76.2153C233.832 80.2904 233.929 85.6982 233.929 91.442V217.925C233.929 223.669 233.832 229.077 233.656 233.152C233.363 239.977 233.024 239.977 232.556 239.977ZM122.105 238.878H232.309C232.629 237.454 233.035 229.868 233.035 217.925V91.442C233.035 79.4993 232.629 71.9129 232.309 70.489H122.105C121.784 71.9129 121.379 79.4992 121.379 91.442V217.925C121.379 229.868 121.784 237.454 122.105 238.878Z" fill="#E4E4E4"/>
<path d="M232.556 78.9093H121.857C121.612 78.9089 121.377 78.7889 121.203 78.5756C121.03 78.3622 120.932 78.073 120.932 77.7713V71.0774C120.932 70.7757 121.03 70.4865 121.203 70.2731C121.377 70.0598 121.612 69.9398 121.857 69.9395H232.556C232.801 69.9398 233.037 70.0598 233.21 70.2731C233.384 70.4865 233.481 70.7757 233.481 71.0774V77.7713C233.481 78.073 233.384 78.3622 233.21 78.5756C233.037 78.7889 232.801 78.9089 232.556 78.9093Z" fill="#CACACA"/>
<path d="M126.303 75.7136C127.029 75.7136 127.617 74.9902 127.617 74.0979C127.617 73.2056 127.029 72.4823 126.303 72.4823C125.577 72.4823 124.989 73.2056 124.989 74.0979C124.989 74.9902 125.577 75.7136 126.303 75.7136Z" fill="white"/>
<path d="M131.291 75.7136C132.016 75.7136 132.605 74.9902 132.605 74.0979C132.605 73.2056 132.016 72.4823 131.291 72.4823C130.565 72.4823 129.977 73.2056 129.977 74.0979C129.977 74.9902 130.565 75.7136 131.291 75.7136Z" fill="white"/>
<path d="M136.278 75.7136C137.004 75.7136 137.592 74.9902 137.592 74.0979C137.592 73.2056 137.004 72.4823 136.278 72.4823C135.553 72.4823 134.964 73.2056 134.964 74.0979C134.964 74.9902 135.553 75.7136 136.278 75.7136Z" fill="white"/>
<path d="M227.669 72.9859H221.926C221.813 72.9859 221.705 72.9308 221.625 72.8327C221.545 72.7346 221.5 72.6015 221.5 72.4628C221.5 72.3241 221.545 72.191 221.625 72.0929C221.705 71.9948 221.813 71.9397 221.926 71.9397H227.669C227.782 71.9401 227.89 71.9955 227.969 72.0935C228.049 72.1916 228.093 72.3243 228.093 72.4628C228.093 72.6012 228.049 72.734 227.969 72.8321C227.89 72.9301 227.782 72.9854 227.669 72.9859Z" fill="white"/>
<path d="M227.669 74.9474H221.926C221.813 74.9474 221.705 74.8923 221.625 74.7942C221.545 74.6961 221.5 74.5631 221.5 74.4243C221.5 74.2856 221.545 74.1526 221.625 74.0545C221.705 73.9564 221.813 73.9012 221.926 73.9012H227.669C227.782 73.9012 227.89 73.9564 227.97 74.0545C228.05 74.1526 228.095 74.2856 228.095 74.4243C228.095 74.5631 228.05 74.6961 227.97 74.7942C227.89 74.8923 227.782 74.9474 227.669 74.9474Z" fill="white"/>
<path d="M227.669 76.9091H221.926C221.813 76.9091 221.705 76.854 221.625 76.7559C221.545 76.6578 221.5 76.5247 221.5 76.386C221.5 76.2473 221.545 76.1142 221.625 76.0161C221.705 75.918 221.813 75.8629 221.926 75.8629H227.669C227.782 75.8634 227.89 75.9187 227.969 76.0167C228.049 76.1148 228.093 76.2476 228.093 76.386C228.093 76.5245 228.049 76.6573 227.969 76.7553C227.89 76.8534 227.782 76.9087 227.669 76.9091Z" fill="white"/>
<path d="M155.874 120.458H141.752C141.044 120.457 140.365 120.111 139.864 119.495C139.364 118.879 139.082 118.045 139.081 117.174V102.135C139.082 101.265 139.364 100.43 139.864 99.8144C140.365 99.1988 141.044 98.8526 141.752 98.8516H155.874C156.582 98.8526 157.261 99.1988 157.761 99.8144C158.262 100.43 158.544 101.265 158.545 102.135V117.174C158.544 118.045 158.262 118.879 157.761 119.495C157.261 120.111 156.582 120.457 155.874 120.458Z" fill="#4BFFA5"/>
<path d="M214.12 107.652H164.901C164.579 107.652 164.271 107.495 164.043 107.215C163.816 106.936 163.688 106.556 163.688 106.161C163.688 105.766 163.816 105.386 164.043 105.107C164.271 104.827 164.579 104.67 164.901 104.67H214.12C214.441 104.67 214.75 104.827 214.977 105.107C215.204 105.386 215.332 105.766 215.332 106.161C215.332 106.556 215.204 106.936 214.977 107.215C214.75 107.495 214.441 107.652 214.12 107.652Z" fill="#E4E4E4"/>
<path d="M183.595 114.639H164.901C164.579 114.639 164.271 114.482 164.043 114.203C163.816 113.923 163.688 113.544 163.688 113.149C163.688 112.753 163.816 112.374 164.043 112.094C164.271 111.815 164.579 111.658 164.901 111.658H183.595C183.754 111.657 183.912 111.696 184.059 111.771C184.207 111.845 184.341 111.955 184.454 112.093C184.566 112.232 184.656 112.396 184.717 112.577C184.778 112.759 184.81 112.953 184.81 113.149C184.81 113.345 184.778 113.539 184.717 113.72C184.656 113.901 184.566 114.065 184.454 114.204C184.341 114.342 184.207 114.452 184.059 114.527C183.912 114.602 183.754 114.64 183.595 114.639Z" fill="#E4E4E4"/>
<path d="M155.874 164.976H141.752C141.044 164.975 140.365 164.629 139.864 164.013C139.364 163.398 139.082 162.563 139.081 161.693V146.654C139.082 145.783 139.364 144.948 139.864 144.333C140.365 143.717 141.044 143.371 141.752 143.37H155.874C156.582 143.371 157.261 143.717 157.761 144.333C158.262 144.948 158.544 145.783 158.545 146.654V161.693C158.544 162.563 158.262 163.398 157.761 164.013C157.261 164.629 156.582 164.975 155.874 164.976Z" fill="#4BFFA5"/>
<path d="M214.12 152.17H164.901C164.579 152.17 164.271 152.013 164.043 151.733C163.816 151.454 163.688 151.075 163.688 150.679C163.688 150.284 163.816 149.905 164.043 149.625C164.271 149.345 164.579 149.188 164.901 149.188H214.12C214.441 149.188 214.75 149.345 214.977 149.625C215.204 149.905 215.332 150.284 215.332 150.679C215.332 151.075 215.204 151.454 214.977 151.733C214.75 152.013 214.441 152.17 214.12 152.17Z" fill="#E4E4E4"/>
<path d="M183.595 159.158H164.901C164.579 159.158 164.271 159.001 164.043 158.721C163.816 158.441 163.688 158.062 163.688 157.667C163.688 157.271 163.816 156.892 164.043 156.613C164.271 156.333 164.579 156.176 164.901 156.176H183.595C183.754 156.176 183.912 156.214 184.059 156.289C184.207 156.363 184.341 156.473 184.454 156.612C184.566 156.75 184.656 156.915 184.717 157.096C184.778 157.277 184.81 157.471 184.81 157.667C184.81 157.863 184.778 158.057 184.717 158.238C184.656 158.419 184.566 158.583 184.454 158.722C184.341 158.86 184.207 158.97 184.059 159.045C183.912 159.12 183.754 159.158 183.595 159.158Z" fill="#E4E4E4"/>
<path d="M155.874 209.494H141.752C141.044 209.493 140.365 209.147 139.864 208.532C139.364 207.916 139.082 207.081 139.081 206.211V191.172C139.082 190.301 139.364 189.467 139.864 188.851C140.365 188.235 141.044 187.889 141.752 187.888H155.874C156.582 187.889 157.261 188.235 157.761 188.851C158.262 189.467 158.544 190.301 158.545 191.172V206.211C158.544 207.081 158.262 207.916 157.761 208.532C157.261 209.147 156.582 209.493 155.874 209.494Z" fill="#4BFFA5"/>
<path d="M214.12 196.688H164.901C164.579 196.688 164.271 196.531 164.043 196.252C163.816 195.972 163.688 195.593 163.688 195.197C163.688 194.802 163.816 194.423 164.043 194.143C164.271 193.864 164.579 193.707 164.901 193.707H214.12C214.441 193.707 214.75 193.864 214.977 194.143C215.204 194.423 215.332 194.802 215.332 195.197C215.332 195.593 215.204 195.972 214.977 196.252C214.75 196.531 214.441 196.688 214.12 196.688Z" fill="#E4E4E4"/>
<path d="M183.595 203.676H164.901C164.579 203.676 164.271 203.519 164.043 203.239C163.816 202.96 163.688 202.581 163.688 202.185C163.688 201.79 163.816 201.411 164.043 201.131C164.271 200.851 164.579 200.694 164.901 200.694H183.595C183.754 200.694 183.912 200.732 184.059 200.807C184.207 200.882 184.341 200.991 184.454 201.13C184.566 201.268 184.656 201.433 184.717 201.614C184.778 201.795 184.81 201.989 184.81 202.185C184.81 202.381 184.778 202.575 184.717 202.756C184.656 202.937 184.566 203.102 184.454 203.24C184.341 203.379 184.207 203.488 184.059 203.563C183.912 203.638 183.754 203.676 183.595 203.676Z" fill="#E4E4E4"/>
</g>
<defs>
<clipPath id="clip0_6_442">
<rect width="327.051" height="239.838" fill="white" transform="translate(0.893677 0.139771)"/>
</clipPath>
</defs>
</svg>
