<svg width="297" height="218" viewBox="0 0 297 218" fill="none" xmlns="http://www.w3.org/2000/svg">
<g clip-path="url(#clip0_6_517)">
<path d="M289.184 210.641L286.251 211.58L281.238 200.698L285.566 199.312L289.184 210.641Z" fill="#FFB6B6"/>
<path d="M290.842 213.248L281.385 216.278L281.347 216.158C281.035 215.18 281.123 214.118 281.592 213.206C282.062 212.293 282.874 211.605 283.85 211.292L283.85 211.292L285.159 209.427L288.801 209.707L289.626 209.442L290.842 213.248Z" fill="#2F2E41"/>
<path d="M261.377 213.57H258.298L256.833 201.676H261.378L261.377 213.57Z" fill="#FFB6B6"/>
<path d="M262.163 216.56L252.234 216.559V216.434C252.234 215.407 252.641 214.423 253.366 213.697C254.091 212.971 255.074 212.563 256.099 212.563H256.099L257.913 211.185L261.296 212.564L262.163 212.564L262.163 216.56Z" fill="#2F2E41"/>
<path d="M246.67 90.65C246.439 90.9385 246.274 91.2743 246.187 91.6335C246.1 91.9928 246.092 92.3669 246.164 92.7295C246.237 93.0921 246.388 93.4344 246.607 93.7321C246.826 94.0299 247.107 94.276 247.432 94.4531L245.955 103.32L250.218 101.425L250.967 93.2955C251.228 92.7304 251.273 92.089 251.093 91.493C250.913 90.8969 250.522 90.3876 249.992 90.0615C249.462 89.7355 248.832 89.6152 248.22 89.7237C247.607 89.8322 247.056 90.1618 246.67 90.65Z" fill="#FFB6B6"/>
<path d="M285.539 164.201C285.539 164.201 286.257 154.835 283.712 153.095C281.167 151.355 260.18 150.48 260.18 150.48L258.877 152.196C258.877 152.196 258.759 152.998 256.782 159.527L255.977 195.975C255.898 199.529 255.279 203.993 256.761 204.906L257.481 208.513H261.443L263.631 202.449C264.575 200.923 264.976 199.123 264.772 197.341L265.967 191.987C265.883 191.903 265.825 191.797 265.797 191.682C265.662 190.884 265.841 190.065 266.296 189.397C266.402 189.24 266.518 189.092 266.644 188.952L271.023 169.338L276.929 192.282L280.574 200.432C280.216 201.286 280.454 202.06 281.107 202.778C280.864 203.447 281.913 203.915 282.364 204.78L283.772 207.431L287.734 205.266L288.094 203.102C288.334 202.461 287.689 202.035 287.213 200.702C288.1 199.759 288.052 198.84 287.197 197.943L285.699 191.476L285.682 188.511L285.663 185.342L285.539 164.201Z" fill="#2F2E41"/>
<path d="M268.975 108.515C272.776 108.515 275.857 105.429 275.857 101.622C275.857 97.8158 272.776 94.7301 268.975 94.7301C265.174 94.7301 262.093 97.8158 262.093 101.622C262.093 105.429 265.174 108.515 268.975 108.515Z" fill="#FFB6B6"/>
<path d="M275.898 102.701L275.785 102.474C275.609 102.122 274.154 99.1952 273.971 98.4427L272.14 98.6585L267.371 98.6592L268.033 97.6637L266.281 97.8926C265.641 97.9705 265.028 98.2017 264.496 98.5665C264.169 98.7839 263.893 99.0691 263.686 99.4027C263.06 100.476 262.104 102.232 262.094 102.249L262.003 102.417L261.208 101.079C261.198 101.027 260.213 95.8831 263.509 94.1386C263.978 93.2196 264.705 92.4576 265.601 91.9458C266.496 91.434 267.521 91.1947 268.55 91.2571C268.926 90.8275 269.456 90.5636 270.026 90.5225C270.807 90.4817 271.619 90.893 272.434 91.75C273.516 92.8883 274.999 94.4471 275.895 96.178L276.143 96.5314C276.494 97.0372 276.668 97.6454 276.638 98.2609C276.828 99.2431 276.76 100.258 276.441 101.206L275.898 102.701Z" fill="#2F2E41"/>
<path d="M285.507 114.738L278.027 112.641L274.219 109.811L266.738 111.007L266.706 111.049C265.396 112.753 263.377 114.436 261.231 114.503C260.678 114.521 260.13 114.6 259.595 114.738L258.877 127.889V139.646C258.989 139.684 259.089 139.75 259.169 139.838C259.248 139.926 259.303 140.033 259.329 140.149C259.54 141.347 259.52 142.575 259.27 143.766C259.182 144.182 259.05 144.587 258.877 144.975C259.086 145.407 259.194 145.882 259.194 146.363C259.194 146.843 259.086 147.318 258.877 147.751C258.237 148.361 258.32 149.026 258.877 149.727V152.196C271.018 162.341 283.681 153.654 283.681 153.654L283.274 134.343L285.507 114.738Z" fill="#3F3D56"/>
<path d="M261.273 116.545L259.595 114.738L250.349 113.689L251.217 99.4676L246.176 95.8661L243.893 108.207C243.108 108.888 242.962 109.557 243.521 110.216C242.893 111.475 242.731 112.499 242.945 113.333L242.472 115.888L259.58 127.889L261.273 116.545Z" fill="#3F3D56"/>
<path d="M284.142 163.047C283.943 162.736 283.815 162.385 283.766 162.018C283.717 161.651 283.749 161.279 283.86 160.926C283.971 160.573 284.157 160.249 284.407 159.976C284.656 159.703 284.962 159.489 285.303 159.347L284.776 150.373L288.814 152.712L288.695 160.875C288.895 161.464 288.871 162.107 288.629 162.68C288.387 163.254 287.944 163.719 287.382 163.986C286.821 164.254 286.181 164.307 285.584 164.133C284.987 163.96 284.474 163.574 284.142 163.047Z" fill="#FFB6B6"/>
<path d="M282.697 116.982L285.507 114.738C285.507 114.738 288.381 116.326 289.255 119.172C290.13 122.018 291.66 138.219 291.66 138.219L291.896 144.252C292.198 145.208 292.119 146.062 291.398 146.742C292.481 147.864 292.32 148.798 290.841 149.534L289.307 159.018L284.492 158.017L285.102 139.314L281.167 127.272L282.697 116.982Z" fill="#3F3D56"/>
<path d="M90.3721 42.6864H89.3867V15.6502C89.3867 13.5953 88.9825 11.5605 88.1973 9.662C87.4121 7.76352 86.2612 6.03851 84.8103 4.58547C83.3594 3.13244 81.6369 1.97982 79.7413 1.19344C77.8456 0.407065 75.8138 0.00232076 73.762 0.00231934H16.5666C12.4227 0.00231073 8.4485 1.65091 5.51829 4.58544C2.58808 7.51997 0.941904 11.5001 0.941895 15.6501V163.973C0.941893 168.123 2.58806 172.103 5.51826 175.038C8.44846 177.972 12.4227 179.621 16.5666 179.621H73.7619C75.8138 179.621 77.8455 179.216 79.7412 178.43C81.6369 177.643 83.3594 176.491 84.8102 175.038C86.2611 173.585 87.412 171.86 88.1973 169.961C88.9825 168.063 89.3866 166.028 89.3866 163.973V61.9312H90.3721V42.6864Z" fill="#3F3D56"/>
<path d="M74.3923 4.07339H66.9264C67.2698 4.91638 67.4008 5.83099 67.308 6.73666C67.2153 7.64233 66.9015 8.51126 66.3945 9.26689C65.8874 10.0225 65.2026 10.6417 64.4003 11.0698C63.598 11.4979 62.7029 11.7219 61.7938 11.722H29.0273C28.1183 11.7219 27.2231 11.4979 26.4208 11.0698C25.6185 10.6417 24.9337 10.0225 24.4266 9.26689C23.9196 8.51125 23.6058 7.64232 23.5131 6.73665C23.4203 5.83098 23.5514 4.91636 23.8947 4.07336H16.9216C13.8269 4.07336 10.859 5.30452 8.67077 7.49599C6.48253 9.68747 5.25318 12.6598 5.25317 15.759V163.864C5.25317 165.399 5.55498 166.918 6.14137 168.336C6.72776 169.754 7.58725 171.042 8.67075 172.127C9.75426 173.212 11.0406 174.073 12.4562 174.66C13.8719 175.248 15.3892 175.55 16.9215 175.55H74.3923C75.9246 175.55 77.4419 175.248 78.8576 174.66C80.2733 174.073 81.5596 173.212 82.6431 172.127C83.7266 171.042 84.5861 169.754 85.1725 168.336C85.7589 166.918 86.0607 165.399 86.0607 163.864V15.759C86.0607 14.2244 85.7589 12.7049 85.1725 11.2871C84.5861 9.86934 83.7266 8.58113 82.6431 7.49602C81.5596 6.41091 80.2733 5.55015 78.8576 4.96289C77.4419 4.37564 75.9246 4.07338 74.3923 4.07339Z" fill="white"/>
<path d="M73.8397 59.5443C73.8439 62.9087 73.2449 66.2464 72.071 69.3987C71.538 70.8426 70.8841 72.2388 70.1164 73.5724C67.6482 77.8856 64.0866 81.4697 59.7917 83.9622C55.4968 86.4547 50.6208 87.7674 45.6569 87.7674C40.693 87.7674 35.817 86.4547 31.5221 83.9622C27.2272 81.4697 23.6656 77.8856 21.1974 73.5724C20.9476 73.1386 20.7106 72.6984 20.4866 72.2516C18.5709 68.4458 17.5406 64.2549 17.473 59.9933C17.4055 55.7318 18.3024 51.5102 20.0966 47.6454C21.8908 43.7806 24.5355 40.3728 27.8325 37.6778C31.1295 34.9828 34.9931 33.0705 39.1334 32.0844C43.2737 31.0983 47.5833 31.0639 51.7387 31.984C55.8942 32.904 59.7877 34.7545 63.1271 37.3967C66.4664 40.0388 69.165 43.404 71.0203 47.2397C72.8757 51.0755 73.8396 55.2822 73.8397 59.5443Z" fill="#F1F1F1"/>
<path d="M47.1221 64.3092C50.0978 64.3092 52.5101 61.8934 52.5101 58.9133C52.5101 55.9332 50.0978 53.5173 47.1221 53.5173C44.1464 53.5173 41.7341 55.9332 41.7341 58.9133C41.7341 61.8934 44.1464 64.3092 47.1221 64.3092Z" fill="#FF6582"/>
<path d="M20.4866 72.2517C22.8605 69.6824 26.034 65.6033 29.0104 68.5507C30.5041 69.941 32.842 73.3862 35.0798 71.1339L52.555 53.6328C52.884 53.3075 53.2746 53.0514 53.7038 52.8794C54.1331 52.7075 54.5923 52.6231 55.0545 52.6314C55.5167 52.6397 55.9727 52.7404 56.3955 52.9277C56.8183 53.1149 57.1995 53.3849 57.5166 53.7218L72.071 69.3988C71.5379 70.8426 70.884 72.2388 70.1163 73.5725H21.1974L20.4866 72.2517Z" fill="#4BFFA5"/>
<path d="M58.8805 116.859C58.6877 116.86 58.5029 116.937 58.3667 117.074C58.2305 117.21 58.1541 117.395 58.1541 117.589C58.1541 117.782 58.2305 117.967 58.3667 118.104C58.5029 118.24 58.6877 118.317 58.8805 118.318H66.5208C66.7139 118.318 66.8991 118.241 67.0356 118.104C67.1721 117.967 67.2488 117.782 67.2488 117.589C67.2488 117.395 67.1721 117.21 67.0356 117.073C66.8991 116.936 66.7139 116.859 66.5208 116.859H58.8805Z" fill="#4BFFA5"/>
<path d="M24.459 106.15C24.2659 106.15 24.0807 106.226 23.9442 106.363C23.8077 106.5 23.731 106.685 23.731 106.879C23.731 107.072 23.8077 107.258 23.9442 107.394C24.0807 107.531 24.2659 107.608 24.459 107.608H66.855C67.0481 107.608 67.2333 107.531 67.3698 107.394C67.5063 107.258 67.583 107.072 67.583 106.879C67.583 106.685 67.5063 106.5 67.3698 106.363C67.2333 106.226 67.0481 106.15 66.855 106.15H24.459Z" fill="#E5E5E5"/>
<path d="M24.4591 111.504C24.2663 111.505 24.0815 111.582 23.9453 111.719C23.8092 111.855 23.7327 112.04 23.7327 112.234C23.7327 112.427 23.8092 112.612 23.9453 112.749C24.0815 112.885 24.2663 112.962 24.4591 112.963H66.8551C66.9508 112.963 67.0457 112.944 67.1342 112.908C67.2227 112.871 67.3032 112.817 67.3709 112.75C67.4387 112.682 67.4925 112.602 67.5292 112.513C67.5659 112.424 67.5848 112.329 67.5848 112.234C67.5848 112.138 67.5659 112.043 67.5292 111.954C67.4925 111.866 67.4387 111.785 67.3709 111.717C67.3032 111.65 67.2227 111.596 67.1342 111.559C67.0457 111.523 66.9508 111.504 66.8551 111.504H24.4591Z" fill="#E5E5E5"/>
<path d="M58.8804 151.22C58.6873 151.22 58.5021 151.297 58.3656 151.434C58.2291 151.571 58.1523 151.756 58.1523 151.949C58.1523 152.143 58.2291 152.328 58.3656 152.465C58.5021 152.602 58.6873 152.679 58.8804 152.679H66.5207C66.7138 152.679 66.899 152.602 67.0355 152.465C67.1721 152.328 67.2488 152.143 67.2488 151.949C67.2488 151.756 67.1721 151.571 67.0355 151.434C66.899 151.297 66.7138 151.22 66.5207 151.22H58.8804Z" fill="#4BFFA5"/>
<path d="M24.459 140.51C24.2659 140.51 24.0808 140.587 23.9442 140.724C23.8077 140.861 23.731 141.046 23.731 141.24C23.731 141.433 23.8077 141.618 23.9442 141.755C24.0808 141.892 24.2659 141.969 24.459 141.969H66.855C66.9507 141.969 67.0456 141.95 67.1341 141.914C67.2226 141.877 67.3031 141.823 67.3708 141.756C67.4386 141.688 67.4924 141.608 67.5291 141.519C67.5658 141.43 67.5847 141.335 67.5847 141.24C67.5847 141.144 67.5658 141.049 67.5291 140.96C67.4924 140.872 67.4386 140.791 67.3708 140.723C67.3031 140.656 67.2226 140.602 67.1341 140.565C67.0456 140.529 66.9507 140.51 66.855 140.51H24.459Z" fill="#E5E5E5"/>
<path d="M24.459 145.865C24.2659 145.865 24.0807 145.942 23.9442 146.079C23.8077 146.216 23.731 146.401 23.731 146.595C23.731 146.788 23.8077 146.973 23.9442 147.11C24.0807 147.247 24.2659 147.324 24.459 147.324H66.855C67.0481 147.324 67.2333 147.247 67.3698 147.11C67.5063 146.973 67.583 146.788 67.583 146.595C67.583 146.401 67.5063 146.216 67.3698 146.079C67.2333 145.942 67.0481 145.865 66.855 145.865H24.459Z" fill="#E5E5E5"/>
<path d="M242.63 82.1968L236.813 79.5625C236.784 80.3405 236.564 81.0994 236.173 81.7724C235.782 82.4454 235.232 83.0117 234.571 83.4216C233.91 83.8314 233.159 84.0722 232.383 84.1227C231.607 84.1732 230.831 84.0319 230.123 83.7112L204.591 72.1496C203.883 71.8288 203.264 71.3384 202.79 70.7217C202.315 70.105 202 69.381 201.87 68.6133C201.741 67.8455 201.802 67.0578 202.049 66.3194C202.295 65.5809 202.719 64.9145 203.283 64.3788L197.85 61.9183C195.438 60.8264 192.693 60.7385 190.216 61.6739C187.74 62.6094 185.737 64.4916 184.647 66.9065L132.542 182.309C132.002 183.505 131.703 184.795 131.661 186.107C131.619 187.419 131.835 188.726 132.298 189.953C132.761 191.181 133.46 192.306 134.356 193.263C135.253 194.22 136.329 194.991 137.523 195.532H137.523L182.304 215.81C184.715 216.902 187.461 216.99 189.937 216.054C192.413 215.119 194.416 213.237 195.507 210.822L247.611 95.4194C248.151 94.2236 248.45 92.9331 248.492 91.6215C248.534 90.3099 248.318 89.0028 247.855 87.775C247.393 86.5472 246.693 85.4226 245.797 84.4655C244.9 83.5084 243.824 82.7375 242.63 82.1968Z" fill="#E4E4E4"/>
<path d="M190.804 137.145C186.883 135.362 183.499 132.576 180.994 129.068C178.488 125.56 176.949 121.454 176.53 117.161C176.488 116.735 176.458 116.298 176.44 115.861C176.269 112.033 177.008 108.22 178.594 104.733C180.07 101.468 182.244 98.5674 184.961 96.2353C187.679 93.9031 190.874 92.1966 194.322 91.2359C197.769 90.2753 201.386 90.084 204.915 90.6756C208.445 91.2672 211.802 92.6271 214.749 94.6596C217.697 96.6921 220.163 99.3475 221.974 102.439C223.786 105.53 224.897 108.981 225.232 112.55C225.566 116.118 225.114 119.716 223.908 123.091C222.702 126.465 220.772 129.533 218.253 132.079C217.315 133.03 216.299 133.9 215.216 134.68C211.721 137.2 207.625 138.755 203.34 139.188C199.055 139.621 194.731 138.916 190.804 137.145ZM210.663 93.1609C204.925 90.5706 198.395 90.3656 192.506 92.5908C186.617 94.816 181.85 99.2897 179.251 105.03C177.711 108.414 176.994 112.116 177.159 115.831C177.177 116.254 177.206 116.678 177.247 117.091C177.647 121.259 179.138 125.248 181.571 128.654C184.004 132.061 187.291 134.763 191.101 136.488C194.911 138.214 199.109 138.901 203.269 138.481C207.43 138.061 211.406 136.548 214.795 134.095C215.846 133.338 216.831 132.494 217.741 131.572C220.438 128.846 222.436 125.507 223.565 121.84C224.694 118.173 224.921 114.287 224.225 110.514C223.53 106.74 221.933 103.191 219.572 100.17C217.21 97.1478 214.154 94.7432 210.663 93.1609H210.663Z" fill="white"/>
<path d="M193.215 91.93L192.543 92.1881L209.657 136.933L210.33 136.675L193.215 91.93Z" fill="white"/>
<path d="M222.695 105.886L178.014 123.023L178.272 123.697L222.952 106.56L222.695 105.886Z" fill="white"/>
<path d="M200.536 172.105L158.271 152.966C157.958 152.824 157.714 152.563 157.592 152.24C157.471 151.918 157.482 151.561 157.623 151.247L161.599 142.441C161.741 142.127 162.002 141.882 162.324 141.761C162.646 141.639 163.002 141.65 163.316 141.792L205.581 160.932C205.895 161.074 206.139 161.335 206.26 161.657C206.382 161.979 206.37 162.337 206.229 162.651L202.253 171.457C202.111 171.771 201.85 172.015 201.529 172.137C201.207 172.258 200.85 172.247 200.536 172.105ZM163.019 142.449C162.88 142.386 162.721 142.381 162.578 142.435C162.435 142.49 162.319 142.598 162.256 142.738L158.28 151.544C158.217 151.684 158.212 151.843 158.266 151.986C158.32 152.129 158.428 152.245 158.568 152.309L200.833 171.448C200.973 171.511 201.131 171.516 201.275 171.462C201.418 171.408 201.534 171.299 201.597 171.16L205.573 162.354C205.636 162.214 205.641 162.055 205.587 161.912C205.533 161.768 205.424 161.652 205.285 161.589L163.019 142.449Z" fill="white"/>
<path d="M190.298 194.782L148.032 175.642C147.719 175.5 147.475 175.239 147.354 174.917C147.232 174.595 147.243 174.237 147.385 173.923L151.361 165.117C151.503 164.803 151.763 164.559 152.085 164.437C152.407 164.316 152.764 164.327 153.077 164.469L195.343 183.608C195.656 183.75 195.9 184.011 196.022 184.334C196.143 184.656 196.132 185.013 195.991 185.327L192.015 194.133C191.872 194.447 191.612 194.692 191.29 194.813C190.968 194.935 190.611 194.924 190.298 194.782ZM152.781 165.126C152.641 165.063 152.482 165.058 152.339 165.112C152.196 165.166 152.08 165.275 152.017 165.414L148.041 174.22C147.978 174.36 147.973 174.519 148.027 174.662C148.081 174.806 148.19 174.922 148.329 174.985L190.595 194.125C190.734 194.188 190.893 194.193 191.036 194.139C191.179 194.084 191.295 193.976 191.358 193.836L195.334 185.03C195.397 184.89 195.402 184.731 195.348 184.588C195.294 184.445 195.186 184.329 195.046 184.265L152.781 165.126Z" fill="white"/>
<path d="M173.963 137.404C173.094 133.068 171.216 128.998 168.483 125.525C165.704 121.998 162.31 119.005 158.466 116.69C154.493 114.273 150.165 112.496 145.642 111.424C140.02 110.071 134.214 109.631 128.444 109.686C122.633 109.742 116.84 110.288 111.064 110.895C110.33 110.972 109.596 111.05 108.862 111.129C108.178 111.202 108.17 112.285 108.862 112.211C114.553 111.603 120.251 111.005 125.975 110.821C131.651 110.638 137.369 110.862 142.956 111.947C147.608 112.811 152.097 114.4 156.258 116.657C160.134 118.76 163.611 121.529 166.529 124.838C169.388 128.072 171.456 131.928 172.568 136.102C172.703 136.628 172.819 137.158 172.921 137.692C173.051 138.375 174.093 138.085 173.963 137.404Z" fill="#2F2E41"/>
<path d="M112.721 103.386L104.091 112.579C104.033 112.638 103.99 112.709 103.964 112.787C103.938 112.865 103.93 112.948 103.94 113.03C103.951 113.112 103.98 113.19 104.025 113.259C104.07 113.328 104.13 113.386 104.2 113.428L111.986 117.156C112.61 117.454 113.159 116.522 112.531 116.221L104.746 112.494L104.855 113.344L113.485 104.151C113.961 103.644 113.198 102.877 112.721 103.386Z" fill="#2F2E41"/>
<path d="M296.468 217.036H131.775C131.661 217.036 131.552 216.991 131.471 216.91C131.391 216.83 131.346 216.721 131.346 216.607C131.346 216.493 131.391 216.384 131.471 216.303C131.552 216.222 131.661 216.177 131.775 216.177H296.468C296.582 216.177 296.691 216.222 296.771 216.303C296.852 216.384 296.897 216.493 296.897 216.607C296.897 216.721 296.852 216.83 296.771 216.91C296.691 216.991 296.582 217.036 296.468 217.036Z" fill="#CACACA"/>
</g>
<defs>
<clipPath id="clip0_6_517">
<rect width="295.955" height="217.034" fill="white" transform="translate(0.941895 0.00231934)"/>
</clipPath>
</defs>
</svg>
